<?xml version="1.0" encoding="utf-8"?>
<svg xmlns="http://www.w3.org/2000/svg" xmlns:xlink="http://www.w3.org/1999/xlink" width="375" zoomAndPan="magnify" viewBox="0 0 281.25 281.249989" height="375" preserveAspectRatio="xMidYMid meet" version="1.0">
  <defs>
    <clipPath id="67d506075c">
      <path clip-rule="nonzero" d="M 5 5 L 275 5 L 275 275 L 5 275 Z M 5 5"/>
    </clipPath>
    <clipPath id="0d4bb6d4b6">
      <path clip-rule="nonzero" d="M 44.792969 5.628906 L 235.710938 5.628906 C 236.992188 5.628906 238.273438 5.691406 239.546875 5.816406 C 240.824219 5.945312 242.09375 6.132812 243.351562 6.382812 C 244.609375 6.632812 245.851562 6.945312 247.078125 7.316406 C 248.304688 7.6875 249.511719 8.121094 250.695312 8.609375 C 251.882812 9.101562 253.039062 9.648438 254.171875 10.253906 C 255.300781 10.859375 256.402344 11.515625 257.46875 12.230469 C 258.535156 12.941406 259.5625 13.707031 260.554688 14.519531 C 261.546875 15.332031 262.496094 16.191406 263.402344 17.101562 C 264.308594 18.007812 265.167969 18.957031 265.984375 19.949219 C 266.796875 20.9375 267.558594 21.96875 268.273438 23.035156 C 268.984375 24.101562 269.644531 25.199219 270.246094 26.332031 C 270.851562 27.460938 271.398438 28.621094 271.890625 29.804688 C 272.382812 30.992188 272.8125 32.195312 273.1875 33.425781 C 273.558594 34.652344 273.871094 35.894531 274.121094 37.152344 C 274.371094 38.410156 274.558594 39.675781 274.683594 40.953125 C 274.808594 42.230469 274.871094 43.507812 274.871094 44.792969 L 274.871094 235.710938 C 274.871094 236.992188 274.808594 238.273438 274.683594 239.546875 C 274.558594 240.824219 274.371094 242.09375 274.121094 243.351562 C 273.871094 244.609375 273.558594 245.851562 273.1875 247.078125 C 272.8125 248.304688 272.382812 249.511719 271.890625 250.695312 C 271.398438 251.882812 270.851562 253.039062 270.25 254.171875 C 269.644531 255.300781 268.984375 256.402344 268.273438 257.46875 C 267.558594 258.535156 266.796875 259.5625 265.984375 260.554688 C 265.167969 261.546875 264.308594 262.496094 263.402344 263.402344 C 262.496094 264.308594 261.546875 265.167969 260.554688 265.984375 C 259.5625 266.796875 258.535156 267.558594 257.46875 268.273438 C 256.402344 268.984375 255.300781 269.644531 254.171875 270.246094 C 253.039062 270.851562 251.882812 271.398438 250.695312 271.890625 C 249.511719 272.382812 248.304688 272.8125 247.078125 273.1875 C 245.851562 273.558594 244.609375 273.871094 243.351562 274.121094 C 242.09375 274.371094 240.824219 274.558594 239.546875 274.683594 C 238.273438 274.808594 236.992188 274.871094 235.710938 274.871094 L 44.792969 274.871094 C 43.507812 274.871094 42.230469 274.808594 40.953125 274.683594 C 39.675781 274.558594 38.410156 274.371094 37.152344 274.121094 C 35.894531 273.871094 34.652344 273.558594 33.425781 273.1875 C 32.195312 272.8125 30.992188 272.382812 29.804688 271.890625 C 28.621094 271.398438 27.460938 270.851562 26.332031 270.25 C 25.199219 269.644531 24.101562 268.984375 23.035156 268.273438 C 21.96875 267.558594 20.9375 266.796875 19.949219 265.984375 C 18.957031 265.167969 18.007812 264.308594 17.101562 263.402344 C 16.191406 262.496094 15.332031 261.546875 14.519531 260.554688 C 13.707031 259.5625 12.941406 258.535156 12.230469 257.46875 C 11.515625 256.402344 10.859375 255.300781 10.253906 254.171875 C 9.648438 253.039062 9.101562 251.882812 8.609375 250.695312 C 8.121094 249.511719 7.6875 248.304688 7.316406 247.078125 C 6.945312 245.851562 6.632812 244.609375 6.382812 243.351562 C 6.132812 242.09375 5.945312 240.824219 5.816406 239.546875 C 5.691406 238.273438 5.628906 236.992188 5.628906 235.710938 L 5.628906 44.792969 C 5.628906 43.507812 5.691406 42.230469 5.816406 40.953125 C 5.945312 39.675781 6.132812 38.410156 6.382812 37.152344 C 6.632812 35.894531 6.945312 34.652344 7.316406 33.425781 C 7.6875 32.195312 8.121094 30.992188 8.609375 29.804688 C 9.101562 28.621094 9.648438 27.460938 10.253906 26.332031 C 10.859375 25.199219 11.515625 24.101562 12.230469 23.035156 C 12.941406 21.96875 13.707031 20.9375 14.519531 19.949219 C 15.332031 18.957031 16.191406 18.007812 17.101562 17.101562 C 18.007812 16.191406 18.957031 15.332031 19.949219 14.519531 C 20.9375 13.707031 21.96875 12.941406 23.035156 12.230469 C 24.101562 11.515625 25.199219 10.859375 26.332031 10.253906 C 27.460938 9.648438 28.621094 9.101562 29.804688 8.609375 C 30.992188 8.121094 32.195312 7.6875 33.425781 7.316406 C 34.652344 6.945312 35.894531 6.632812 37.152344 6.382812 C 38.410156 6.132812 39.675781 5.945312 40.953125 5.816406 C 42.230469 5.691406 43.507812 5.628906 44.792969 5.628906 Z M 44.792969 5.628906"/>
    </clipPath>
    <linearGradient x1="286.5" gradientTransform="matrix(0.489532, 0, 0, 0.489532, 0.00000575, 0)" y1="11.5" x2="286.5" gradientUnits="userSpaceOnUse" y2="561.499999" id="46ac70f364">
      <stop stop-opacity="1" stop-color="rgb(65.499878%, 66.299438%, 67.498779%)" offset="0"/>
      <stop stop-opacity="1" stop-color="rgb(65.79895%, 66.598511%, 67.797852%)" offset="0.00390625"/>
      <stop stop-opacity="1" stop-color="rgb(66.098022%, 66.897583%, 68.09845%)" offset="0.0078125"/>
      <stop stop-opacity="1" stop-color="rgb(66.397095%, 67.196655%, 68.397522%)" offset="0.0117188"/>
      <stop stop-opacity="1" stop-color="rgb(66.697693%, 67.497253%, 68.696594%)" offset="0.015625"/>
      <stop stop-opacity="1" stop-color="rgb(66.996765%, 67.796326%, 68.995667%)" offset="0.0195312"/>
      <stop stop-opacity="1" stop-color="rgb(67.295837%, 68.095398%, 69.296265%)" offset="0.0234375"/>
      <stop stop-opacity="1" stop-color="rgb(67.593384%, 68.391418%, 69.590759%)" offset="0.0273437"/>
      <stop stop-opacity="1" stop-color="rgb(67.89093%, 68.688965%, 69.885254%)" offset="0.03125"/>
      <stop stop-opacity="1" stop-color="rgb(68.179321%, 68.966675%, 70.153809%)" offset="0.0351562"/>
      <stop stop-opacity="1" stop-color="rgb(68.467712%, 69.244385%, 70.422363%)" offset="0.0390625"/>
      <stop stop-opacity="1" stop-color="rgb(68.756104%, 69.522095%, 70.690918%)" offset="0.0429687"/>
      <stop stop-opacity="1" stop-color="rgb(69.044495%, 69.801331%, 70.959473%)" offset="0.046875"/>
      <stop stop-opacity="1" stop-color="rgb(69.33136%, 70.079041%, 71.228027%)" offset="0.0507812"/>
      <stop stop-opacity="1" stop-color="rgb(69.619751%, 70.358276%, 71.496582%)" offset="0.0546875"/>
      <stop stop-opacity="1" stop-color="rgb(69.908142%, 70.635986%, 71.765137%)" offset="0.0585937"/>
      <stop stop-opacity="1" stop-color="rgb(70.196533%, 70.915222%, 72.033691%)" offset="0.0625"/>
      <stop stop-opacity="1" stop-color="rgb(70.483398%, 71.192932%, 72.302246%)" offset="0.0664062"/>
      <stop stop-opacity="1" stop-color="rgb(70.77179%, 71.472168%, 72.570801%)" offset="0.0703125"/>
      <stop stop-opacity="1" stop-color="rgb(71.060181%, 71.749878%, 72.839355%)" offset="0.0742187"/>
      <stop stop-opacity="1" stop-color="rgb(71.348572%, 72.027588%, 73.10791%)" offset="0.078125"/>
      <stop stop-opacity="1" stop-color="rgb(71.636963%, 72.305298%, 73.376465%)" offset="0.0820312"/>
      <stop stop-opacity="1" stop-color="rgb(71.925354%, 72.584534%, 73.64502%)" offset="0.0859375"/>
      <stop stop-opacity="1" stop-color="rgb(72.212219%, 72.862244%, 73.913574%)" offset="0.0898437"/>
      <stop stop-opacity="1" stop-color="rgb(72.50061%, 73.141479%, 74.182129%)" offset="0.09375"/>
      <stop stop-opacity="1" stop-color="rgb(72.789001%, 73.419189%, 74.450684%)" offset="0.0976562"/>
      <stop stop-opacity="1" stop-color="rgb(73.077393%, 73.698425%, 74.719238%)" offset="0.101562"/>
      <stop stop-opacity="1" stop-color="rgb(73.364258%, 73.976135%, 74.987793%)" offset="0.105469"/>
      <stop stop-opacity="1" stop-color="rgb(73.652649%, 74.255371%, 75.256348%)" offset="0.109375"/>
      <stop stop-opacity="1" stop-color="rgb(73.94104%, 74.533081%, 75.524902%)" offset="0.113281"/>
      <stop stop-opacity="1" stop-color="rgb(74.229431%, 74.810791%, 75.793457%)" offset="0.117187"/>
      <stop stop-opacity="1" stop-color="rgb(74.517822%, 75.088501%, 76.062012%)" offset="0.121094"/>
      <stop stop-opacity="1" stop-color="rgb(74.806213%, 75.367737%, 76.330566%)" offset="0.125"/>
      <stop stop-opacity="1" stop-color="rgb(75.093079%, 75.645447%, 76.599121%)" offset="0.128906"/>
      <stop stop-opacity="1" stop-color="rgb(75.38147%, 75.924683%, 76.867676%)" offset="0.132812"/>
      <stop stop-opacity="1" stop-color="rgb(75.669861%, 76.202393%, 77.13623%)" offset="0.136719"/>
      <stop stop-opacity="1" stop-color="rgb(75.958252%, 76.481628%, 77.404785%)" offset="0.140625"/>
      <stop stop-opacity="1" stop-color="rgb(76.245117%, 76.759338%, 77.67334%)" offset="0.144531"/>
      <stop stop-opacity="1" stop-color="rgb(76.533508%, 77.038574%, 77.941895%)" offset="0.148438"/>
      <stop stop-opacity="1" stop-color="rgb(76.821899%, 77.316284%, 78.210449%)" offset="0.152344"/>
      <stop stop-opacity="1" stop-color="rgb(77.110291%, 77.593994%, 78.479004%)" offset="0.15625"/>
      <stop stop-opacity="1" stop-color="rgb(77.398682%, 77.871704%, 78.747559%)" offset="0.160156"/>
      <stop stop-opacity="1" stop-color="rgb(77.687073%, 78.15094%, 79.016113%)" offset="0.164062"/>
      <stop stop-opacity="1" stop-color="rgb(77.973938%, 78.42865%, 79.284668%)" offset="0.167969"/>
      <stop stop-opacity="1" stop-color="rgb(78.262329%, 78.707886%, 79.553223%)" offset="0.171875"/>
      <stop stop-opacity="1" stop-color="rgb(78.55072%, 78.985596%, 79.821777%)" offset="0.175781"/>
      <stop stop-opacity="1" stop-color="rgb(78.839111%, 79.264832%, 80.090332%)" offset="0.179688"/>
      <stop stop-opacity="1" stop-color="rgb(79.125977%, 79.542542%, 80.358887%)" offset="0.183594"/>
      <stop stop-opacity="1" stop-color="rgb(79.414368%, 79.821777%, 80.627441%)" offset="0.1875"/>
      <stop stop-opacity="1" stop-color="rgb(79.646301%, 80.050659%, 80.847168%)" offset="0.191406"/>
      <stop stop-opacity="1" stop-color="rgb(79.879761%, 80.281067%, 81.06842%)" offset="0.195312"/>
      <stop stop-opacity="1" stop-color="rgb(80.08728%, 80.487061%, 81.265259%)" offset="0.199219"/>
      <stop stop-opacity="1" stop-color="rgb(80.2948%, 80.69458%, 81.463623%)" offset="0.203125"/>
      <stop stop-opacity="1" stop-color="rgb(80.500793%, 80.900574%, 81.660461%)" offset="0.207031"/>
      <stop stop-opacity="1" stop-color="rgb(80.708313%, 81.108093%, 81.858826%)" offset="0.210938"/>
      <stop stop-opacity="1" stop-color="rgb(80.914307%, 81.314087%, 82.055664%)" offset="0.214844"/>
      <stop stop-opacity="1" stop-color="rgb(81.121826%, 81.521606%, 82.254028%)" offset="0.21875"/>
      <stop stop-opacity="1" stop-color="rgb(81.32782%, 81.7276%, 82.450867%)" offset="0.222656"/>
      <stop stop-opacity="1" stop-color="rgb(81.535339%, 81.93512%, 82.649231%)" offset="0.226562"/>
      <stop stop-opacity="1" stop-color="rgb(81.741333%, 82.141113%, 82.846069%)" offset="0.230469"/>
      <stop stop-opacity="1" stop-color="rgb(81.948853%, 82.348633%, 83.044434%)" offset="0.234375"/>
      <stop stop-opacity="1" stop-color="rgb(82.154846%, 82.554626%, 83.241272%)" offset="0.238281"/>
      <stop stop-opacity="1" stop-color="rgb(82.362366%, 82.762146%, 83.439636%)" offset="0.242187"/>
      <stop stop-opacity="1" stop-color="rgb(82.568359%, 82.96814%, 83.636475%)" offset="0.246094"/>
      <stop stop-opacity="1" stop-color="rgb(82.775879%, 83.175659%, 83.834839%)" offset="0.25"/>
      <stop stop-opacity="1" stop-color="rgb(82.981873%, 83.381653%, 84.031677%)" offset="0.253906"/>
      <stop stop-opacity="1" stop-color="rgb(83.189392%, 83.589172%, 84.230042%)" offset="0.257812"/>
      <stop stop-opacity="1" stop-color="rgb(83.395386%, 83.795166%, 84.42688%)" offset="0.261719"/>
      <stop stop-opacity="1" stop-color="rgb(83.602905%, 84.002686%, 84.625244%)" offset="0.265625"/>
      <stop stop-opacity="1" stop-color="rgb(83.808899%, 84.208679%, 84.822083%)" offset="0.269531"/>
      <stop stop-opacity="1" stop-color="rgb(84.016418%, 84.416199%, 85.020447%)" offset="0.273437"/>
      <stop stop-opacity="1" stop-color="rgb(84.222412%, 84.622192%, 85.217285%)" offset="0.277344"/>
      <stop stop-opacity="1" stop-color="rgb(84.429932%, 84.829712%, 85.415649%)" offset="0.28125"/>
      <stop stop-opacity="1" stop-color="rgb(84.635925%, 85.035706%, 85.612488%)" offset="0.285156"/>
      <stop stop-opacity="1" stop-color="rgb(84.843445%, 85.243225%, 85.810852%)" offset="0.289062"/>
      <stop stop-opacity="1" stop-color="rgb(85.049438%, 85.449219%, 86.00769%)" offset="0.292969"/>
      <stop stop-opacity="1" stop-color="rgb(85.256958%, 85.656738%, 86.206055%)" offset="0.296875"/>
      <stop stop-opacity="1" stop-color="rgb(85.462952%, 85.862732%, 86.402893%)" offset="0.300781"/>
      <stop stop-opacity="1" stop-color="rgb(85.670471%, 86.070251%, 86.601257%)" offset="0.304687"/>
      <stop stop-opacity="1" stop-color="rgb(85.876465%, 86.277771%, 86.798096%)" offset="0.308594"/>
      <stop stop-opacity="1" stop-color="rgb(86.083984%, 86.485291%, 86.99646%)" offset="0.3125"/>
      <stop stop-opacity="1" stop-color="rgb(86.289978%, 86.691284%, 87.193298%)" offset="0.316406"/>
      <stop stop-opacity="1" stop-color="rgb(86.497498%, 86.898804%, 87.391663%)" offset="0.320312"/>
      <stop stop-opacity="1" stop-color="rgb(86.703491%, 87.104797%, 87.588501%)" offset="0.324219"/>
      <stop stop-opacity="1" stop-color="rgb(86.911011%, 87.312317%, 87.786865%)" offset="0.328125"/>
      <stop stop-opacity="1" stop-color="rgb(87.11853%, 87.518311%, 87.983704%)" offset="0.332031"/>
      <stop stop-opacity="1" stop-color="rgb(87.32605%, 87.72583%, 88.182068%)" offset="0.335938"/>
      <stop stop-opacity="1" stop-color="rgb(87.532043%, 87.931824%, 88.378906%)" offset="0.339844"/>
      <stop stop-opacity="1" stop-color="rgb(87.739563%, 88.139343%, 88.577271%)" offset="0.34375"/>
      <stop stop-opacity="1" stop-color="rgb(87.945557%, 88.345337%, 88.774109%)" offset="0.347656"/>
      <stop stop-opacity="1" stop-color="rgb(88.153076%, 88.552856%, 88.972473%)" offset="0.351562"/>
      <stop stop-opacity="1" stop-color="rgb(88.35907%, 88.75885%, 89.169312%)" offset="0.355469"/>
      <stop stop-opacity="1" stop-color="rgb(88.566589%, 88.96637%, 89.367676%)" offset="0.359375"/>
      <stop stop-opacity="1" stop-color="rgb(88.708496%, 89.108276%, 89.500427%)" offset="0.367187"/>
      <stop stop-opacity="1" stop-color="rgb(88.986206%, 89.387512%, 89.762878%)" offset="0.375"/>
      <stop stop-opacity="1" stop-color="rgb(89.260864%, 89.660645%, 90.019226%)" offset="0.382812"/>
      <stop stop-opacity="1" stop-color="rgb(89.533997%, 89.933777%, 90.275574%)" offset="0.390625"/>
      <stop stop-opacity="1" stop-color="rgb(89.807129%, 90.206909%, 90.530396%)" offset="0.398438"/>
      <stop stop-opacity="1" stop-color="rgb(90.080261%, 90.480042%, 90.786743%)" offset="0.40625"/>
      <stop stop-opacity="1" stop-color="rgb(90.353394%, 90.7547%, 91.043091%)" offset="0.414062"/>
      <stop stop-opacity="1" stop-color="rgb(90.628052%, 91.027832%, 91.299438%)" offset="0.421875"/>
      <stop stop-opacity="1" stop-color="rgb(90.901184%, 91.300964%, 91.555786%)" offset="0.429687"/>
      <stop stop-opacity="1" stop-color="rgb(91.174316%, 91.574097%, 91.810608%)" offset="0.4375"/>
      <stop stop-opacity="1" stop-color="rgb(91.447449%, 91.847229%, 92.066956%)" offset="0.445312"/>
      <stop stop-opacity="1" stop-color="rgb(91.720581%, 92.121887%, 92.323303%)" offset="0.453125"/>
      <stop stop-opacity="1" stop-color="rgb(91.995239%, 92.39502%, 92.579651%)" offset="0.460937"/>
      <stop stop-opacity="1" stop-color="rgb(92.268372%, 92.668152%, 92.835999%)" offset="0.46875"/>
      <stop stop-opacity="1" stop-color="rgb(92.541504%, 92.941284%, 93.092346%)" offset="0.476562"/>
      <stop stop-opacity="1" stop-color="rgb(92.814636%, 93.214417%, 93.347168%)" offset="0.484375"/>
      <stop stop-opacity="1" stop-color="rgb(93.087769%, 93.489075%, 93.603516%)" offset="0.492188"/>
      <stop stop-opacity="1" stop-color="rgb(93.362427%, 93.762207%, 93.859863%)" offset="0.5"/>
      <stop stop-opacity="1" stop-color="rgb(93.635559%, 94.035339%, 94.116211%)" offset="0.507812"/>
      <stop stop-opacity="1" stop-color="rgb(93.908691%, 94.308472%, 94.372559%)" offset="0.515625"/>
      <stop stop-opacity="1" stop-color="rgb(94.181824%, 94.581604%, 94.628906%)" offset="0.523438"/>
      <stop stop-opacity="1" stop-color="rgb(94.454956%, 94.856262%, 94.883728%)" offset="0.53125"/>
      <stop stop-opacity="1" stop-color="rgb(94.729614%, 95.129395%, 95.140076%)" offset="0.539062"/>
      <stop stop-opacity="1" stop-color="rgb(94.949341%, 95.343018%, 95.343018%)" offset="0.546875"/>
      <stop stop-opacity="1" stop-color="rgb(95.185852%, 95.555115%, 95.555115%)" offset="0.5625"/>
      <stop stop-opacity="1" stop-color="rgb(95.489502%, 95.829773%, 95.829773%)" offset="0.578125"/>
      <stop stop-opacity="1" stop-color="rgb(95.794678%, 96.102905%, 96.102905%)" offset="0.59375"/>
      <stop stop-opacity="1" stop-color="rgb(96.099854%, 96.376038%, 96.376038%)" offset="0.609375"/>
      <stop stop-opacity="1" stop-color="rgb(96.403503%, 96.64917%, 96.64917%)" offset="0.625"/>
      <stop stop-opacity="1" stop-color="rgb(96.708679%, 96.922302%, 96.922302%)" offset="0.640625"/>
      <stop stop-opacity="1" stop-color="rgb(97.013855%, 97.19696%, 97.19696%)" offset="0.65625"/>
      <stop stop-opacity="1" stop-color="rgb(97.317505%, 97.470093%, 97.470093%)" offset="0.671875"/>
      <stop stop-opacity="1" stop-color="rgb(97.622681%, 97.743225%, 97.743225%)" offset="0.6875"/>
      <stop stop-opacity="1" stop-color="rgb(97.927856%, 98.016357%, 98.016357%)" offset="0.703125"/>
      <stop stop-opacity="1" stop-color="rgb(98.233032%, 98.28949%, 98.28949%)" offset="0.71875"/>
      <stop stop-opacity="1" stop-color="rgb(98.536682%, 98.564148%, 98.564148%)" offset="0.734375"/>
      <stop stop-opacity="1" stop-color="rgb(98.76709%, 98.773193%, 98.773193%)" offset="0.75"/>
      <stop stop-opacity="1" stop-color="rgb(98.988342%, 98.988342%, 98.988342%)" offset="0.8125"/>
      <stop stop-opacity="1" stop-color="rgb(99.276733%, 99.276733%, 99.276733%)" offset="0.875"/>
      <stop stop-opacity="1" stop-color="rgb(99.565125%, 99.565125%, 99.565125%)" offset="0.9375"/>
      <stop stop-opacity="1" stop-color="rgb(99.853516%, 99.853516%, 99.853516%)" offset="1"/>
    </linearGradient>
    <clipPath id="38a8d9e01b">
      <path clip-rule="nonzero" d="M 0 0 L 280.503906 0 L 280.503906 280.503906 L 0 280.503906 Z M 0 0"/>
    </clipPath>
    <clipPath id="d42075d65b">
      <path clip-rule="nonzero" d="M 22 22 L 258 22 L 258 258 L 22 258 Z M 22 22"/>
    </clipPath>
    <clipPath id="a6e23af6d1">
      <path clip-rule="nonzero" d="M 47.238281 22.761719 L 233.261719 22.761719 C 234.0625 22.761719 234.863281 22.800781 235.660156 22.882812 C 236.460938 22.960938 237.25 23.078125 238.039062 23.234375 C 238.824219 23.390625 239.601562 23.585938 240.367188 23.816406 C 241.132812 24.050781 241.886719 24.320312 242.628906 24.625 C 243.371094 24.933594 244.09375 25.277344 244.800781 25.652344 C 245.507812 26.03125 246.195312 26.441406 246.859375 26.886719 C 247.527344 27.332031 248.171875 27.8125 248.789062 28.320312 C 249.410156 28.828125 250.003906 29.367188 250.570312 29.933594 C 251.136719 30.5 251.675781 31.09375 252.183594 31.710938 C 252.691406 32.332031 253.167969 32.976562 253.613281 33.640625 C 254.058594 34.308594 254.46875 34.996094 254.847656 35.703125 C 255.226562 36.410156 255.570312 37.132812 255.875 37.875 C 256.183594 38.613281 256.453125 39.367188 256.683594 40.132812 C 256.917969 40.902344 257.113281 41.679688 257.269531 42.464844 C 257.425781 43.25 257.542969 44.042969 257.621094 44.839844 C 257.699219 45.636719 257.738281 46.4375 257.738281 47.238281 L 257.738281 233.261719 C 257.738281 234.0625 257.699219 234.863281 257.621094 235.660156 C 257.542969 236.460938 257.425781 237.25 257.269531 238.039062 C 257.113281 238.824219 256.917969 239.601562 256.683594 240.367188 C 256.453125 241.132812 256.183594 241.886719 255.875 242.628906 C 255.570312 243.371094 255.226562 244.09375 254.847656 244.800781 C 254.46875 245.507812 254.058594 246.195312 253.613281 246.859375 C 253.167969 247.527344 252.691406 248.171875 252.183594 248.789062 C 251.675781 249.410156 251.136719 250.003906 250.570312 250.570312 C 250.003906 251.136719 249.410156 251.675781 248.789062 252.183594 C 248.171875 252.691406 247.527344 253.167969 246.859375 253.613281 C 246.195312 254.058594 245.507812 254.46875 244.800781 254.847656 C 244.09375 255.226562 243.371094 255.570312 242.628906 255.875 C 241.886719 256.183594 241.132812 256.453125 240.367188 256.683594 C 239.601562 256.917969 238.824219 257.113281 238.039062 257.269531 C 237.25 257.425781 236.460938 257.542969 235.660156 257.621094 C 234.863281 257.699219 234.0625 257.738281 233.261719 257.738281 L 47.238281 257.738281 C 46.4375 257.738281 45.636719 257.699219 44.839844 257.621094 C 44.042969 257.542969 43.25 257.425781 42.464844 257.269531 C 41.679688 257.113281 40.902344 256.917969 40.132812 256.683594 C 39.367188 256.453125 38.613281 256.183594 37.875 255.875 C 37.132812 255.570312 36.410156 255.226562 35.703125 254.847656 C 34.996094 254.46875 34.308594 254.058594 33.640625 253.613281 C 32.976562 253.167969 32.332031 252.691406 31.710938 252.183594 C 31.09375 251.675781 30.5 251.136719 29.933594 250.570312 C 29.367188 250.003906 28.828125 249.410156 28.320312 248.789062 C 27.8125 248.171875 27.332031 247.527344 26.886719 246.859375 C 26.441406 246.195312 26.03125 245.507812 25.652344 244.800781 C 25.277344 244.09375 24.933594 243.371094 24.625 242.628906 C 24.320312 241.886719 24.050781 241.132812 23.816406 240.367188 C 23.585938 239.601562 23.390625 238.824219 23.234375 238.039062 C 23.078125 237.25 22.960938 236.460938 22.882812 235.660156 C 22.800781 234.863281 22.761719 234.0625 22.761719 233.261719 L 22.761719 47.238281 C 22.761719 46.4375 22.800781 45.636719 22.882812 44.839844 C 22.960938 44.042969 23.078125 43.25 23.234375 42.464844 C 23.390625 41.679688 23.585938 40.902344 23.816406 40.132812 C 24.050781 39.367188 24.320312 38.613281 24.625 37.875 C 24.933594 37.132812 25.277344 36.410156 25.652344 35.703125 C 26.03125 34.996094 26.441406 34.308594 26.886719 33.640625 C 27.332031 32.976562 27.8125 32.332031 28.320312 31.710938 C 28.828125 31.09375 29.367188 30.5 29.933594 29.933594 C 30.5 29.367188 31.09375 28.828125 31.710938 28.320312 C 32.332031 27.8125 32.976562 27.332031 33.640625 26.886719 C 34.308594 26.441406 34.996094 26.03125 35.703125 25.652344 C 36.410156 25.277344 37.132812 24.933594 37.875 24.625 C 38.613281 24.320312 39.367188 24.050781 40.132812 23.816406 C 40.902344 23.585938 41.679688 23.390625 42.464844 23.234375 C 43.25 23.078125 44.042969 22.960938 44.839844 22.882812 C 45.636719 22.800781 46.4375 22.761719 47.238281 22.761719 Z M 47.238281 22.761719"/>
    </clipPath>
    <linearGradient x1="286.5" gradientTransform="matrix(0.489532, 0, 0, 0.489532, 0.00000575, 0)" y1="46.5" x2="286.5" gradientUnits="userSpaceOnUse" y2="526.5" id="10c22c8de9">
      <stop stop-opacity="1" stop-color="rgb(100%, 100%, 100%)" offset="0"/>
      <stop stop-opacity="1" stop-color="rgb(99.87793%, 99.87793%, 99.87793%)" offset="0.0625"/>
      <stop stop-opacity="1" stop-color="rgb(99.635315%, 99.635315%, 99.635315%)" offset="0.125"/>
      <stop stop-opacity="1" stop-color="rgb(99.394226%, 99.394226%, 99.394226%)" offset="0.1875"/>
      <stop stop-opacity="1" stop-color="rgb(99.151611%, 99.151611%, 99.151611%)" offset="0.25"/>
      <stop stop-opacity="1" stop-color="rgb(98.893738%, 98.893738%, 98.893738%)" offset="0.3125"/>
      <stop stop-opacity="1" stop-color="rgb(98.626709%, 98.626709%, 98.626709%)" offset="0.328125"/>
      <stop stop-opacity="1" stop-color="rgb(98.365784%, 98.365784%, 98.365784%)" offset="0.34375"/>
      <stop stop-opacity="1" stop-color="rgb(98.106384%, 98.106384%, 98.106384%)" offset="0.359375"/>
      <stop stop-opacity="1" stop-color="rgb(97.845459%, 97.845459%, 97.845459%)" offset="0.375"/>
      <stop stop-opacity="1" stop-color="rgb(97.584534%, 97.584534%, 97.584534%)" offset="0.390625"/>
      <stop stop-opacity="1" stop-color="rgb(97.325134%, 97.325134%, 97.325134%)" offset="0.40625"/>
      <stop stop-opacity="1" stop-color="rgb(97.064209%, 97.064209%, 97.064209%)" offset="0.421875"/>
      <stop stop-opacity="1" stop-color="rgb(96.803284%, 96.803284%, 96.803284%)" offset="0.4375"/>
      <stop stop-opacity="1" stop-color="rgb(96.543884%, 96.543884%, 96.543884%)" offset="0.453125"/>
      <stop stop-opacity="1" stop-color="rgb(96.282959%, 96.282959%, 96.282959%)" offset="0.46875"/>
      <stop stop-opacity="1" stop-color="rgb(96.022034%, 96.022034%, 96.022034%)" offset="0.484375"/>
      <stop stop-opacity="1" stop-color="rgb(95.762634%, 95.762634%, 95.762634%)" offset="0.5"/>
      <stop stop-opacity="1" stop-color="rgb(95.501709%, 95.501709%, 95.501709%)" offset="0.515625"/>
      <stop stop-opacity="1" stop-color="rgb(95.275879%, 95.275879%, 95.275879%)" offset="0.523437"/>
      <stop stop-opacity="1" stop-color="rgb(95.043945%, 95.043945%, 95.043945%)" offset="0.53125"/>
      <stop stop-opacity="1" stop-color="rgb(94.772339%, 94.772339%, 94.772339%)" offset="0.539062"/>
      <stop stop-opacity="1" stop-color="rgb(94.502258%, 94.502258%, 94.502258%)" offset="0.546875"/>
      <stop stop-opacity="1" stop-color="rgb(94.230652%, 94.230652%, 94.230652%)" offset="0.554688"/>
      <stop stop-opacity="1" stop-color="rgb(93.959045%, 93.959045%, 93.959045%)" offset="0.5625"/>
      <stop stop-opacity="1" stop-color="rgb(93.688965%, 93.688965%, 93.688965%)" offset="0.570312"/>
      <stop stop-opacity="1" stop-color="rgb(93.417358%, 93.417358%, 93.417358%)" offset="0.578125"/>
      <stop stop-opacity="1" stop-color="rgb(93.145752%, 93.145752%, 93.145752%)" offset="0.585938"/>
      <stop stop-opacity="1" stop-color="rgb(92.875671%, 92.875671%, 92.875671%)" offset="0.59375"/>
      <stop stop-opacity="1" stop-color="rgb(92.604065%, 92.604065%, 92.604065%)" offset="0.601562"/>
      <stop stop-opacity="1" stop-color="rgb(92.332458%, 92.332458%, 92.332458%)" offset="0.609375"/>
      <stop stop-opacity="1" stop-color="rgb(92.060852%, 92.060852%, 92.060852%)" offset="0.617187"/>
      <stop stop-opacity="1" stop-color="rgb(91.790771%, 91.790771%, 91.790771%)" offset="0.625"/>
      <stop stop-opacity="1" stop-color="rgb(91.519165%, 91.519165%, 91.519165%)" offset="0.632812"/>
      <stop stop-opacity="1" stop-color="rgb(91.247559%, 91.247559%, 91.247559%)" offset="0.640625"/>
      <stop stop-opacity="1" stop-color="rgb(90.977478%, 90.977478%, 90.977478%)" offset="0.648438"/>
      <stop stop-opacity="1" stop-color="rgb(90.705872%, 90.705872%, 90.705872%)" offset="0.65625"/>
      <stop stop-opacity="1" stop-color="rgb(90.434265%, 90.434265%, 90.434265%)" offset="0.664062"/>
      <stop stop-opacity="1" stop-color="rgb(90.164185%, 90.164185%, 90.164185%)" offset="0.671875"/>
      <stop stop-opacity="1" stop-color="rgb(89.892578%, 89.892578%, 89.892578%)" offset="0.679687"/>
      <stop stop-opacity="1" stop-color="rgb(89.620972%, 89.620972%, 89.620972%)" offset="0.6875"/>
      <stop stop-opacity="1" stop-color="rgb(89.306641%, 89.306641%, 89.306641%)" offset="0.695312"/>
      <stop stop-opacity="1" stop-color="rgb(88.926697%, 88.926697%, 88.926697%)" offset="0.699219"/>
      <stop stop-opacity="1" stop-color="rgb(88.726807%, 88.726807%, 88.726807%)" offset="0.703125"/>
      <stop stop-opacity="1" stop-color="rgb(88.525391%, 88.525391%, 88.525391%)" offset="0.707031"/>
      <stop stop-opacity="1" stop-color="rgb(88.3255%, 88.3255%, 88.3255%)" offset="0.710937"/>
      <stop stop-opacity="1" stop-color="rgb(88.12561%, 88.12561%, 88.12561%)" offset="0.714844"/>
      <stop stop-opacity="1" stop-color="rgb(87.92572%, 87.92572%, 87.92572%)" offset="0.71875"/>
      <stop stop-opacity="1" stop-color="rgb(87.72583%, 87.72583%, 87.72583%)" offset="0.722656"/>
      <stop stop-opacity="1" stop-color="rgb(87.52594%, 87.52594%, 87.52594%)" offset="0.726562"/>
      <stop stop-opacity="1" stop-color="rgb(87.324524%, 87.324524%, 87.324524%)" offset="0.730469"/>
      <stop stop-opacity="1" stop-color="rgb(87.124634%, 87.124634%, 87.124634%)" offset="0.734375"/>
      <stop stop-opacity="1" stop-color="rgb(86.924744%, 86.924744%, 86.924744%)" offset="0.738281"/>
      <stop stop-opacity="1" stop-color="rgb(86.724854%, 86.724854%, 86.724854%)" offset="0.742187"/>
      <stop stop-opacity="1" stop-color="rgb(86.523438%, 86.523438%, 86.523438%)" offset="0.746094"/>
      <stop stop-opacity="1" stop-color="rgb(86.323547%, 86.323547%, 86.323547%)" offset="0.75"/>
      <stop stop-opacity="1" stop-color="rgb(86.123657%, 86.123657%, 86.123657%)" offset="0.753906"/>
      <stop stop-opacity="1" stop-color="rgb(85.923767%, 85.923767%, 85.923767%)" offset="0.757812"/>
      <stop stop-opacity="1" stop-color="rgb(85.723877%, 85.723877%, 85.723877%)" offset="0.761719"/>
      <stop stop-opacity="1" stop-color="rgb(85.523987%, 85.523987%, 85.523987%)" offset="0.765625"/>
      <stop stop-opacity="1" stop-color="rgb(85.322571%, 85.322571%, 85.322571%)" offset="0.769531"/>
      <stop stop-opacity="1" stop-color="rgb(85.122681%, 85.122681%, 85.122681%)" offset="0.773438"/>
      <stop stop-opacity="1" stop-color="rgb(84.922791%, 84.922791%, 84.922791%)" offset="0.777344"/>
      <stop stop-opacity="1" stop-color="rgb(84.7229%, 84.7229%, 84.7229%)" offset="0.78125"/>
      <stop stop-opacity="1" stop-color="rgb(84.521484%, 84.521484%, 84.521484%)" offset="0.785156"/>
      <stop stop-opacity="1" stop-color="rgb(84.321594%, 84.321594%, 84.321594%)" offset="0.789062"/>
      <stop stop-opacity="1" stop-color="rgb(84.121704%, 84.121704%, 84.121704%)" offset="0.792969"/>
      <stop stop-opacity="1" stop-color="rgb(83.921814%, 83.921814%, 83.921814%)" offset="0.796875"/>
      <stop stop-opacity="1" stop-color="rgb(83.721924%, 83.721924%, 83.721924%)" offset="0.800781"/>
      <stop stop-opacity="1" stop-color="rgb(83.522034%, 83.522034%, 83.522034%)" offset="0.804687"/>
      <stop stop-opacity="1" stop-color="rgb(83.320618%, 83.320618%, 83.320618%)" offset="0.808594"/>
      <stop stop-opacity="1" stop-color="rgb(83.120728%, 83.120728%, 83.120728%)" offset="0.8125"/>
      <stop stop-opacity="1" stop-color="rgb(82.920837%, 82.920837%, 82.920837%)" offset="0.816406"/>
      <stop stop-opacity="1" stop-color="rgb(82.720947%, 82.720947%, 82.720947%)" offset="0.820312"/>
      <stop stop-opacity="1" stop-color="rgb(82.519531%, 82.519531%, 82.519531%)" offset="0.824219"/>
      <stop stop-opacity="1" stop-color="rgb(82.319641%, 82.319641%, 82.319641%)" offset="0.828125"/>
      <stop stop-opacity="1" stop-color="rgb(82.119751%, 82.119751%, 82.119751%)" offset="0.832031"/>
      <stop stop-opacity="1" stop-color="rgb(81.919861%, 81.919861%, 81.919861%)" offset="0.835937"/>
      <stop stop-opacity="1" stop-color="rgb(81.719971%, 81.719971%, 81.719971%)" offset="0.839844"/>
      <stop stop-opacity="1" stop-color="rgb(81.520081%, 81.520081%, 81.520081%)" offset="0.84375"/>
      <stop stop-opacity="1" stop-color="rgb(81.300354%, 81.300354%, 81.300354%)" offset="0.847656"/>
      <stop stop-opacity="1" stop-color="rgb(81.080627%, 81.080627%, 81.080627%)" offset="0.851562"/>
      <stop stop-opacity="1" stop-color="rgb(80.784607%, 80.784607%, 80.784607%)" offset="0.855469"/>
      <stop stop-opacity="1" stop-color="rgb(80.490112%, 80.490112%, 80.490112%)" offset="0.859375"/>
      <stop stop-opacity="1" stop-color="rgb(80.194092%, 80.194092%, 80.194092%)" offset="0.863281"/>
      <stop stop-opacity="1" stop-color="rgb(79.898071%, 79.898071%, 79.898071%)" offset="0.867188"/>
      <stop stop-opacity="1" stop-color="rgb(79.602051%, 79.602051%, 79.602051%)" offset="0.871094"/>
      <stop stop-opacity="1" stop-color="rgb(79.30603%, 79.30603%, 79.30603%)" offset="0.875"/>
      <stop stop-opacity="1" stop-color="rgb(79.01001%, 79.01001%, 79.01001%)" offset="0.878906"/>
      <stop stop-opacity="1" stop-color="rgb(78.715515%, 78.715515%, 78.715515%)" offset="0.882812"/>
      <stop stop-opacity="1" stop-color="rgb(78.419495%, 78.419495%, 78.419495%)" offset="0.886719"/>
      <stop stop-opacity="1" stop-color="rgb(78.123474%, 78.123474%, 78.123474%)" offset="0.890625"/>
      <stop stop-opacity="1" stop-color="rgb(77.827454%, 77.827454%, 77.827454%)" offset="0.894531"/>
      <stop stop-opacity="1" stop-color="rgb(77.531433%, 77.531433%, 77.531433%)" offset="0.898438"/>
      <stop stop-opacity="1" stop-color="rgb(77.235413%, 77.235413%, 77.235413%)" offset="0.902344"/>
      <stop stop-opacity="1" stop-color="rgb(76.940918%, 76.940918%, 76.940918%)" offset="0.90625"/>
      <stop stop-opacity="1" stop-color="rgb(76.644897%, 76.644897%, 76.644897%)" offset="0.910156"/>
      <stop stop-opacity="1" stop-color="rgb(76.348877%, 76.348877%, 76.348877%)" offset="0.914062"/>
      <stop stop-opacity="1" stop-color="rgb(76.052856%, 76.052856%, 76.052856%)" offset="0.917969"/>
      <stop stop-opacity="1" stop-color="rgb(75.756836%, 75.756836%, 75.756836%)" offset="0.921875"/>
      <stop stop-opacity="1" stop-color="rgb(75.460815%, 75.460815%, 75.460815%)" offset="0.925781"/>
      <stop stop-opacity="1" stop-color="rgb(75.166321%, 75.166321%, 75.166321%)" offset="0.929688"/>
      <stop stop-opacity="1" stop-color="rgb(74.8703%, 74.8703%, 74.8703%)" offset="0.933594"/>
      <stop stop-opacity="1" stop-color="rgb(74.57428%, 74.57428%, 74.57428%)" offset="0.9375"/>
      <stop stop-opacity="1" stop-color="rgb(74.278259%, 74.278259%, 74.278259%)" offset="0.941406"/>
      <stop stop-opacity="1" stop-color="rgb(73.982239%, 73.982239%, 73.982239%)" offset="0.945312"/>
      <stop stop-opacity="1" stop-color="rgb(73.686218%, 73.686218%, 73.686218%)" offset="0.949219"/>
      <stop stop-opacity="1" stop-color="rgb(73.391724%, 73.391724%, 73.391724%)" offset="0.953125"/>
      <stop stop-opacity="1" stop-color="rgb(73.095703%, 73.095703%, 73.095703%)" offset="0.957031"/>
      <stop stop-opacity="1" stop-color="rgb(72.799683%, 72.799683%, 72.799683%)" offset="0.960937"/>
      <stop stop-opacity="1" stop-color="rgb(72.503662%, 72.503662%, 72.503662%)" offset="0.964844"/>
      <stop stop-opacity="1" stop-color="rgb(72.207642%, 72.207642%, 72.207642%)" offset="0.96875"/>
      <stop stop-opacity="1" stop-color="rgb(71.911621%, 71.911621%, 71.911621%)" offset="0.972656"/>
      <stop stop-opacity="1" stop-color="rgb(71.617126%, 71.617126%, 71.617126%)" offset="0.976562"/>
      <stop stop-opacity="1" stop-color="rgb(71.321106%, 71.321106%, 71.321106%)" offset="0.980469"/>
      <stop stop-opacity="1" stop-color="rgb(71.025085%, 71.025085%, 71.025085%)" offset="0.984375"/>
      <stop stop-opacity="1" stop-color="rgb(70.768738%, 70.768738%, 70.768738%)" offset="0.988281"/>
      <stop stop-opacity="1" stop-color="rgb(70.51239%, 70.51239%, 70.51239%)" offset="0.992188"/>
      <stop stop-opacity="1" stop-color="rgb(70.355225%, 70.355225%, 70.355225%)" offset="1"/>
    </linearGradient>
  </defs>
  <g clip-path="url(#67d506075c)">
    <g clip-path="url(#0d4bb6d4b6)">
      <path fill="url(#46ac70f364)" fill-rule="nonzero" d="M 5.628906 5.628906 L 5.628906 274.871094 L 274.871094 274.871094 L 274.871094 5.628906 Z M 5.628906 5.628906"/>
    </g>
  </g>
  <g clip-path="url(#38a8d9e01b)">
    <path stroke-linecap="butt" transform="matrix(0.489532, 0, 0, 0.489532, 0.00000575, -0.000000000000063779)" fill="none" stroke-linejoin="miter" stroke="#808080" stroke-width="23" stroke-opacity="1" stroke-miterlimit="10" d="M 91.501562 11.498541 L 481.502385 11.498541 C 484.11968 11.498541 486.736974 11.626214 489.33831 11.88156 C 491.947625 12.144885 494.540981 12.527904 497.110398 13.038595 C 499.679815 13.549287 502.217314 14.187651 504.722895 14.945709 C 507.228475 15.703767 509.694158 16.589498 512.111964 17.586942 C 514.537749 18.592367 516.899698 19.709505 519.213769 20.946336 C 521.519861 22.183167 523.770096 23.523733 525.948515 24.983991 C 528.126934 26.436271 530.225557 28.000264 532.252365 29.660011 C 534.279172 31.319759 536.218204 33.075262 538.069461 34.934498 C 539.920718 36.785755 541.676221 38.724788 543.343948 40.751595 C 545.003696 42.770423 546.559709 44.877026 548.019968 47.055445 C 549.472247 49.233863 550.820793 51.476119 552.049644 53.79019 C 553.286475 56.096282 554.403613 58.46621 555.409037 60.884016 C 556.414462 63.309801 557.292213 65.767505 558.05825 68.281065 C 558.816308 70.786646 559.454673 73.324144 559.965364 75.893562 C 560.476056 78.462979 560.859075 81.048355 561.11442 83.65767 C 561.369766 86.266985 561.497439 88.8763 561.497439 91.501574 L 561.497439 481.502397 C 561.497439 484.119692 561.369766 486.736986 561.11442 489.338322 C 560.859075 491.947637 560.476056 494.540992 559.965364 497.11041 C 559.454673 499.679827 558.816308 502.217326 558.05825 504.722906 C 557.292213 507.228487 556.414462 509.69417 555.409037 512.111976 C 554.403613 514.537761 553.286475 516.89971 552.057624 519.213781 C 550.820793 521.519873 549.472247 523.770108 548.019968 525.948527 C 546.559709 528.126946 545.003696 530.225569 543.343948 532.252376 C 541.676221 534.279184 539.920718 536.218216 538.069461 538.069473 C 536.218204 539.92073 534.279172 541.676233 532.252365 543.34396 C 530.225557 545.003708 528.126934 546.559721 525.948515 548.01998 C 523.770096 549.472259 521.519861 550.820804 519.213769 552.049656 C 516.899698 553.286487 514.537749 554.403625 512.111964 555.409049 C 509.694158 556.414473 507.228475 557.292225 504.722895 558.058262 C 502.217314 558.81632 499.679815 559.454684 497.110398 559.965376 C 494.540981 560.476068 491.947625 560.859086 489.33831 561.114432 C 486.736974 561.369778 484.11968 561.497451 481.502385 561.497451 L 91.501562 561.497451 C 88.876288 561.497451 86.266973 561.369778 83.657658 561.114432 C 81.048343 560.859086 78.462967 560.476068 75.89355 559.965376 C 73.324133 559.454684 70.786634 558.81632 68.281053 558.058262 C 65.767493 557.292225 63.309789 556.414473 60.884004 555.409049 C 58.466199 554.403625 56.09627 553.286487 53.790178 552.057636 C 51.476107 550.820804 49.233852 549.472259 47.055433 548.01998 C 44.877014 546.559721 42.770411 545.003708 40.751583 543.34396 C 38.724776 541.676233 36.785744 539.92073 34.934487 538.069473 C 33.07525 536.218216 31.319747 534.279184 29.66 532.252376 C 28.000252 530.225569 26.436259 528.126946 24.98398 525.948527 C 23.523721 523.770108 22.183155 521.519873 20.946324 519.213781 C 19.709493 516.89971 18.592355 514.537761 17.586931 512.111976 C 16.589486 509.69417 15.703755 507.228487 14.945698 504.722906 C 14.18764 502.217326 13.549275 499.679827 13.038584 497.11041 C 12.527892 494.540992 12.144873 491.947637 11.881548 489.338322 C 11.626202 486.736986 11.498529 484.119692 11.498529 481.502397 L 11.498529 91.501574 C 11.498529 88.8763 11.626202 86.266985 11.881548 83.65767 C 12.144873 81.048355 12.527892 78.462979 13.038584 75.893562 C 13.549275 73.324144 14.18764 70.786646 14.945698 68.281065 C 15.703755 65.767505 16.589486 63.309801 17.586931 60.884016 C 18.592355 58.46621 19.709493 56.096282 20.946324 53.79019 C 22.183155 51.476119 23.523721 49.233863 24.98398 47.055445 C 26.436259 44.877026 28.000252 42.770423 29.66 40.751595 C 31.319747 38.724788 33.07525 36.785755 34.934487 34.934498 C 36.785744 33.075262 38.724776 31.319759 40.751583 29.660011 C 42.770411 28.000264 44.877014 26.436271 47.055433 24.983991 C 49.233852 23.523733 51.476107 22.183167 53.790178 20.946336 C 56.09627 19.709505 58.466199 18.592367 60.884004 17.586942 C 63.309789 16.589498 65.767493 15.703767 68.281053 14.945709 C 70.786634 14.187651 73.324133 13.549287 75.89355 13.038595 C 78.462967 12.527904 81.048343 12.144885 83.657658 11.88156 C 86.266973 11.626214 88.876288 11.498541 91.501562 11.498541 Z M 91.501562 11.498541"/>
  </g>
  <g clip-path="url(#d42075d65b)">
    <g clip-path="url(#a6e23af6d1)">
      <path fill="url(#10c22c8de9)" fill-rule="nonzero" d="M 22.761719 22.761719 L 22.761719 257.738281 L 257.738281 257.738281 L 257.738281 22.761719 Z M 22.761719 22.761719"/>
    </g>
  </g>
  <path fill="#000000" fill-opacity="1" fill-rule="nonzero" d="M 140.25 88.851562 C 141.933594 88.851562 143.613281 88.933594 145.289062 89.097656 C 146.964844 89.261719 148.628906 89.507812 150.277344 89.835938 C 151.929688 90.167969 153.5625 90.574219 155.171875 91.0625 C 156.78125 91.550781 158.367188 92.117188 159.921875 92.761719 C 161.476562 93.40625 162.996094 94.125 164.480469 94.917969 C 165.964844 95.714844 167.40625 96.578125 168.808594 97.511719 C 170.207031 98.449219 171.558594 99.449219 172.859375 100.515625 C 174.160156 101.585938 175.40625 102.714844 176.597656 103.90625 C 177.789062 105.09375 178.917969 106.339844 179.984375 107.644531 C 181.050781 108.945312 182.054688 110.292969 182.988281 111.695312 C 183.925781 113.09375 184.789062 114.535156 185.582031 116.019531 C 186.375 117.503906 187.09375 119.027344 187.738281 120.582031 C 188.382812 122.136719 188.949219 123.71875 189.4375 125.332031 C 189.925781 126.941406 190.335938 128.570312 190.664062 130.222656 C 190.992188 131.875 191.238281 133.539062 191.40625 135.210938 C 191.570312 136.886719 191.652344 138.566406 191.652344 140.25 C 191.652344 141.933594 191.570312 143.613281 191.40625 145.289062 C 191.238281 146.964844 190.992188 148.628906 190.664062 150.277344 C 190.335938 151.929688 189.925781 153.5625 189.4375 155.171875 C 188.949219 156.78125 188.382812 158.367188 187.738281 159.921875 C 187.09375 161.476562 186.375 162.996094 185.582031 164.480469 C 184.789062 165.964844 183.925781 167.40625 182.988281 168.808594 C 182.054688 170.207031 181.050781 171.558594 179.984375 172.859375 C 178.917969 174.160156 177.789062 175.40625 176.597656 176.597656 C 175.40625 177.789062 174.160156 178.917969 172.859375 179.984375 C 171.558594 181.050781 170.207031 182.054688 168.808594 182.988281 C 167.40625 183.925781 165.964844 184.789062 164.480469 185.582031 C 162.996094 186.375 161.476562 187.09375 159.921875 187.738281 C 158.367188 188.382812 156.78125 188.949219 155.171875 189.4375 C 153.5625 189.925781 151.929688 190.335938 150.277344 190.664062 C 148.628906 190.992188 146.964844 191.238281 145.289062 191.40625 C 143.613281 191.570312 141.933594 191.652344 140.25 191.652344 C 138.566406 191.652344 136.886719 191.570312 135.210938 191.40625 C 133.539062 191.238281 131.875 190.992188 130.222656 190.664062 C 128.570312 190.335938 126.941406 189.925781 125.332031 189.4375 C 123.71875 188.949219 122.136719 188.382812 120.582031 187.738281 C 119.027344 187.09375 117.503906 186.375 116.019531 185.582031 C 114.535156 184.789062 113.09375 183.925781 111.695312 182.988281 C 110.292969 182.054688 108.945312 181.050781 107.644531 179.984375 C 106.339844 178.917969 105.09375 177.789062 103.90625 176.597656 C 102.714844 175.40625 101.585938 174.160156 100.515625 172.859375 C 99.449219 171.558594 98.449219 170.207031 97.511719 168.808594 C 96.578125 167.40625 95.714844 165.964844 94.917969 164.480469 C 94.125 162.996094 93.40625 161.476562 92.761719 159.921875 C 92.117188 158.367188 91.550781 156.78125 91.0625 155.171875 C 90.574219 153.5625 90.167969 151.929688 89.835938 150.277344 C 89.507812 148.628906 89.261719 146.964844 89.097656 145.289062 C 88.933594 143.613281 88.851562 141.933594 88.851562 140.25 C 88.851562 138.566406 88.9375 136.890625 89.101562 135.214844 C 89.269531 133.539062 89.519531 131.878906 89.847656 130.226562 C 90.175781 128.578125 90.585938 126.945312 91.078125 125.335938 C 91.566406 123.726562 92.132812 122.144531 92.777344 120.589844 C 93.421875 119.035156 94.144531 117.515625 94.9375 116.03125 C 95.730469 114.546875 96.59375 113.105469 97.53125 111.707031 C 98.464844 110.308594 99.46875 108.960938 100.535156 107.660156 C 101.601562 106.359375 102.730469 105.113281 103.921875 103.921875 C 105.113281 102.730469 106.359375 101.601562 107.660156 100.535156 C 108.960938 99.46875 110.308594 98.464844 111.707031 97.53125 C 113.105469 96.59375 114.546875 95.730469 116.03125 94.9375 C 117.515625 94.144531 119.035156 93.421875 120.589844 92.777344 C 122.144531 92.132812 123.726562 91.566406 125.335938 91.078125 C 126.945312 90.585938 128.578125 90.175781 130.226562 89.847656 C 131.878906 89.519531 133.539062 89.269531 135.214844 89.101562 C 136.890625 88.9375 138.566406 88.851562 140.25 88.851562 M 140.25 79.058594 C 138.246094 79.058594 136.246094 79.15625 134.253906 79.355469 C 132.257812 79.550781 130.277344 79.84375 128.3125 80.234375 C 126.347656 80.625 124.40625 81.113281 122.488281 81.695312 C 120.570312 82.277344 118.683594 82.949219 116.835938 83.71875 C 114.984375 84.484375 113.171875 85.339844 111.40625 86.285156 C 109.636719 87.230469 107.921875 88.257812 106.253906 89.371094 C 104.589844 90.484375 102.980469 91.679688 101.429688 92.949219 C 99.882812 94.21875 98.398438 95.566406 96.980469 96.980469 C 95.566406 98.398438 94.21875 99.882812 92.949219 101.429688 C 91.679688 102.980469 90.484375 104.589844 89.371094 106.253906 C 88.257812 107.921875 87.230469 109.636719 86.285156 111.40625 C 85.339844 113.171875 84.484375 114.984375 83.71875 116.832031 C 82.949219 118.683594 82.277344 120.570312 81.695312 122.488281 C 81.113281 124.40625 80.625 126.347656 80.234375 128.3125 C 79.84375 130.277344 79.550781 132.257812 79.355469 134.253906 C 79.15625 136.246094 79.058594 138.246094 79.058594 140.25 C 79.058594 142.253906 79.15625 144.253906 79.355469 146.25 C 79.550781 148.242188 79.84375 150.222656 80.234375 152.1875 C 80.625 154.15625 81.113281 156.097656 81.695312 158.015625 C 82.277344 159.933594 82.949219 161.816406 83.71875 163.667969 C 84.484375 165.519531 85.339844 167.328125 86.285156 169.097656 C 87.230469 170.863281 88.257812 172.582031 89.371094 174.246094 C 90.484375 175.914062 91.679688 177.519531 92.949219 179.070312 C 94.21875 180.621094 95.566406 182.101562 96.980469 183.519531 C 98.398438 184.9375 99.882812 186.28125 101.429688 187.550781 C 102.980469 188.824219 104.589844 190.015625 106.253906 191.128906 C 107.921875 192.242188 109.636719 193.273438 111.40625 194.21875 C 113.171875 195.160156 114.984375 196.019531 116.835938 196.785156 C 118.683594 197.550781 120.570312 198.226562 122.488281 198.808594 C 124.40625 199.390625 126.347656 199.875 128.3125 200.265625 C 130.277344 200.65625 132.257812 200.953125 134.253906 201.148438 C 136.246094 201.34375 138.246094 201.441406 140.25 201.441406 C 142.253906 201.441406 144.253906 201.34375 146.25 201.148438 C 148.242188 200.953125 150.222656 200.65625 152.1875 200.265625 C 154.15625 199.875 156.097656 199.390625 158.015625 198.808594 C 159.933594 198.226562 161.816406 197.550781 163.667969 196.785156 C 165.519531 196.019531 167.328125 195.160156 169.097656 194.21875 C 170.863281 193.273438 172.582031 192.242188 174.246094 191.128906 C 175.914062 190.015625 177.519531 188.824219 179.070312 187.550781 C 180.621094 186.28125 182.101562 184.9375 183.519531 183.519531 C 184.9375 182.101562 186.28125 180.621094 187.550781 179.070312 C 188.824219 177.519531 190.015625 175.914062 191.128906 174.246094 C 192.242188 172.582031 193.273438 170.863281 194.21875 169.097656 C 195.160156 167.328125 196.019531 165.519531 196.785156 163.667969 C 197.550781 161.816406 198.226562 159.933594 198.808594 158.015625 C 199.390625 156.097656 199.875 154.15625 200.265625 152.1875 C 200.65625 150.222656 200.953125 148.242188 201.148438 146.25 C 201.34375 144.253906 201.441406 142.253906 201.441406 140.25 C 201.441406 138.246094 201.34375 136.246094 201.148438 134.253906 C 200.953125 132.257812 200.65625 130.277344 200.265625 128.3125 C 199.875 126.347656 199.390625 124.40625 198.808594 122.488281 C 198.226562 120.570312 197.550781 118.683594 196.785156 116.835938 C 196.019531 114.984375 195.160156 113.171875 194.21875 111.40625 C 193.273438 109.636719 192.242188 107.921875 191.128906 106.253906 C 190.015625 104.589844 188.824219 102.980469 187.550781 101.429688 C 186.28125 99.882812 184.9375 98.398438 183.519531 96.980469 C 182.101562 95.566406 180.621094 94.21875 179.070312 92.949219 C 177.519531 91.679688 175.914062 90.484375 174.246094 89.371094 C 172.582031 88.257812 170.863281 87.230469 169.097656 86.285156 C 167.328125 85.339844 165.519531 84.484375 163.667969 83.71875 C 161.816406 82.949219 159.933594 82.277344 158.015625 81.695312 C 156.097656 81.113281 154.15625 80.625 152.1875 80.234375 C 150.222656 79.84375 148.242188 79.550781 146.25 79.355469 C 144.253906 79.15625 142.253906 79.058594 140.25 79.058594 Z M 140.25 79.058594"/>
</svg>