<?xml version="1.0" encoding="utf-8"?>
<svg xmlns="http://www.w3.org/2000/svg" xmlns:xlink="http://www.w3.org/1999/xlink" width="375" viewBox="0 0 375 375" height="375" version="1.0">
  <defs>
    <clipPath id="a">
      <path d="M 7 7 L 368 7 L 368 368 L 7 368 Z M 7 7"/>
    </clipPath>
    <clipPath id="b">
      <path d="M 59.882812 7.527344 L 315.117188 7.527344 C 316.832031 7.527344 318.542969 7.609375 320.25 7.777344 C 321.957031 7.945312 323.648438 8.199219 325.332031 8.53125 C 327.015625 8.867188 328.675781 9.28125 330.316406 9.78125 C 331.957031 10.277344 333.570312 10.855469 335.152344 11.511719 C 336.738281 12.167969 338.285156 12.898438 339.796875 13.707031 C 341.308594 14.515625 342.78125 15.398438 344.207031 16.351562 C 345.632812 17.300781 347.007812 18.324219 348.332031 19.410156 C 349.65625 20.5 350.925781 21.648438 352.140625 22.859375 C 353.351562 24.074219 354.5 25.34375 355.589844 26.667969 C 356.675781 27.992188 357.699219 29.367188 358.648438 30.792969 C 359.601562 32.21875 360.484375 33.691406 361.292969 35.203125 C 362.101562 36.714844 362.832031 38.261719 363.488281 39.847656 C 364.144531 41.429688 364.722656 43.042969 365.21875 44.683594 C 365.71875 46.324219 366.132812 47.984375 366.46875 49.667969 C 366.800781 51.351562 367.054688 53.042969 367.222656 54.75 C 367.390625 56.457031 367.472656 58.167969 367.472656 59.882812 L 367.472656 315.117188 C 367.472656 316.832031 367.390625 318.542969 367.222656 320.25 C 367.054688 321.957031 366.800781 323.648438 366.46875 325.332031 C 366.132812 327.015625 365.71875 328.675781 365.21875 330.316406 C 364.722656 331.957031 364.144531 333.570312 363.488281 335.152344 C 362.832031 336.738281 362.101562 338.285156 361.292969 339.796875 C 360.484375 341.308594 359.601562 342.78125 358.648438 344.207031 C 357.699219 345.632812 356.675781 347.007812 355.589844 348.332031 C 354.5 349.65625 353.351562 350.925781 352.140625 352.140625 C 350.925781 353.351562 349.65625 354.5 348.332031 355.589844 C 347.007812 356.675781 345.632812 357.699219 344.207031 358.648438 C 342.78125 359.601562 341.308594 360.484375 339.796875 361.292969 C 338.285156 362.101562 336.738281 362.832031 335.152344 363.488281 C 333.570312 364.144531 331.957031 364.722656 330.316406 365.21875 C 328.675781 365.71875 327.015625 366.132812 325.332031 366.46875 C 323.648438 366.800781 321.957031 367.054688 320.25 367.222656 C 318.542969 367.390625 316.832031 367.472656 315.117188 367.472656 L 59.882812 367.472656 C 58.167969 367.472656 56.457031 367.390625 54.75 367.222656 C 53.042969 367.054688 51.351562 366.800781 49.667969 366.46875 C 47.984375 366.132812 46.324219 365.71875 44.683594 365.21875 C 43.042969 364.722656 41.429688 364.144531 39.847656 363.488281 C 38.261719 362.832031 36.714844 362.101562 35.203125 361.292969 C 33.691406 360.484375 32.21875 359.601562 30.792969 358.648438 C 29.367188 357.699219 27.992188 356.675781 26.667969 355.589844 C 25.34375 354.5 24.074219 353.351562 22.859375 352.140625 C 21.648438 350.925781 20.5 349.65625 19.410156 348.332031 C 18.324219 347.007812 17.300781 345.632812 16.351562 344.207031 C 15.398438 342.78125 14.515625 341.308594 13.707031 339.796875 C 12.898438 338.285156 12.167969 336.738281 11.511719 335.152344 C 10.855469 333.570312 10.277344 331.957031 9.78125 330.316406 C 9.28125 328.675781 8.867188 327.015625 8.53125 325.332031 C 8.199219 323.648438 7.945312 321.957031 7.777344 320.25 C 7.609375 318.542969 7.527344 316.832031 7.527344 315.117188 L 7.527344 59.882812 C 7.527344 58.167969 7.609375 56.457031 7.777344 54.75 C 7.945312 53.042969 8.199219 51.351562 8.53125 49.667969 C 8.867188 47.984375 9.28125 46.324219 9.78125 44.683594 C 10.277344 43.042969 10.855469 41.429688 11.511719 39.847656 C 12.167969 38.261719 12.898438 36.714844 13.707031 35.203125 C 14.515625 33.691406 15.398438 32.21875 16.351562 30.792969 C 17.300781 29.367188 18.324219 27.992188 19.410156 26.667969 C 20.5 25.34375 21.648438 24.074219 22.859375 22.859375 C 24.074219 21.648438 25.34375 20.5 26.667969 19.410156 C 27.992188 18.324219 29.367188 17.300781 30.792969 16.351562 C 32.21875 15.398438 33.691406 14.515625 35.203125 13.707031 C 36.714844 12.898438 38.261719 12.167969 39.847656 11.511719 C 41.429688 10.855469 43.042969 10.277344 44.683594 9.78125 C 46.324219 9.28125 47.984375 8.867188 49.667969 8.53125 C 51.351562 8.199219 53.042969 7.945312 54.75 7.777344 C 56.457031 7.609375 58.167969 7.527344 59.882812 7.527344 Z M 59.882812 7.527344"/>
    </clipPath>
    <clipPath id="d">
      <path d="M 30 30 L 345 30 L 345 345 L 30 345 Z M 30 30"/>
    </clipPath>
    <clipPath id="e">
      <path d="M 63.15625 30.433594 L 311.84375 30.433594 C 312.917969 30.433594 313.988281 30.484375 315.054688 30.589844 C 316.121094 30.695312 317.179688 30.851562 318.230469 31.0625 C 319.28125 31.269531 320.320312 31.53125 321.34375 31.839844 C 322.371094 32.152344 323.378906 32.511719 324.367188 32.921875 C 325.359375 33.332031 326.324219 33.789062 327.269531 34.296875 C 328.214844 34.800781 329.132812 35.351562 330.023438 35.945312 C 330.917969 36.542969 331.777344 37.179688 332.605469 37.859375 C 333.433594 38.539062 334.226562 39.257812 334.984375 40.015625 C 335.742188 40.773438 336.460938 41.566406 337.140625 42.394531 C 337.820312 43.222656 338.457031 44.082031 339.054688 44.976562 C 339.648438 45.867188 340.199219 46.785156 340.703125 47.730469 C 341.210938 48.675781 341.667969 49.640625 342.078125 50.632812 C 342.488281 51.621094 342.847656 52.628906 343.160156 53.65625 C 343.46875 54.679688 343.730469 55.71875 343.9375 56.769531 C 344.148438 57.820312 344.304688 58.878906 344.410156 59.945312 C 344.515625 61.011719 344.566406 62.082031 344.566406 63.15625 L 344.566406 311.84375 C 344.566406 312.917969 344.515625 313.988281 344.410156 315.054688 C 344.304688 316.121094 344.148438 317.179688 343.9375 318.230469 C 343.730469 319.28125 343.46875 320.320312 343.160156 321.34375 C 342.847656 322.371094 342.488281 323.378906 342.078125 324.367188 C 341.667969 325.359375 341.210938 326.324219 340.703125 327.269531 C 340.199219 328.214844 339.648438 329.132812 339.054688 330.023438 C 338.457031 330.917969 337.820312 331.777344 337.140625 332.605469 C 336.460938 333.433594 335.742188 334.226562 334.984375 334.984375 C 334.226562 335.742188 333.433594 336.460938 332.605469 337.140625 C 331.777344 337.820312 330.917969 338.457031 330.023438 339.054688 C 329.132812 339.648438 328.214844 340.199219 327.269531 340.703125 C 326.324219 341.210938 325.359375 341.667969 324.367188 342.078125 C 323.378906 342.488281 322.371094 342.847656 321.34375 343.160156 C 320.320312 343.46875 319.28125 343.730469 318.230469 343.9375 C 317.179688 344.148438 316.121094 344.304688 315.054688 344.410156 C 313.988281 344.515625 312.917969 344.566406 311.84375 344.566406 L 63.15625 344.566406 C 62.082031 344.566406 61.011719 344.515625 59.945312 344.410156 C 58.878906 344.304688 57.820312 344.148438 56.769531 343.9375 C 55.71875 343.730469 54.679688 343.46875 53.65625 343.160156 C 52.628906 342.847656 51.621094 342.488281 50.632812 342.078125 C 49.640625 341.667969 48.675781 341.210938 47.730469 340.703125 C 46.785156 340.199219 45.867188 339.648438 44.976562 339.054688 C 44.082031 338.457031 43.222656 337.820312 42.394531 337.140625 C 41.566406 336.460938 40.773438 335.742188 40.015625 334.984375 C 39.257812 334.226562 38.539062 333.433594 37.859375 332.605469 C 37.179688 331.777344 36.542969 330.917969 35.945312 330.023438 C 35.351562 329.132812 34.800781 328.214844 34.296875 327.269531 C 33.789062 326.324219 33.332031 325.359375 32.921875 324.367188 C 32.511719 323.378906 32.152344 322.371094 31.839844 321.34375 C 31.53125 320.320312 31.269531 319.28125 31.0625 318.230469 C 30.851562 317.179688 30.695312 316.121094 30.589844 315.054688 C 30.484375 313.988281 30.433594 312.917969 30.433594 311.84375 L 30.433594 63.15625 C 30.433594 62.082031 30.484375 61.011719 30.589844 59.945312 C 30.695312 58.878906 30.851562 57.820312 31.0625 56.769531 C 31.269531 55.71875 31.53125 54.679688 31.839844 53.65625 C 32.152344 52.628906 32.511719 51.621094 32.921875 50.632812 C 33.332031 49.640625 33.789062 48.675781 34.296875 47.730469 C 34.800781 46.785156 35.351562 45.867188 35.945312 44.976562 C 36.542969 44.082031 37.179688 43.222656 37.859375 42.394531 C 38.539062 41.566406 39.257812 40.773438 40.015625 40.015625 C 40.773438 39.257812 41.566406 38.539062 42.394531 37.859375 C 43.222656 37.179688 44.082031 36.542969 44.976562 35.945312 C 45.867188 35.351562 46.785156 34.800781 47.730469 34.296875 C 48.675781 33.789062 49.640625 33.332031 50.632812 32.921875 C 51.621094 32.511719 52.628906 32.152344 53.65625 31.839844 C 54.679688 31.53125 55.71875 31.269531 56.769531 31.0625 C 57.820312 30.851562 58.878906 30.695312 59.945312 30.589844 C 61.011719 30.484375 62.082031 30.433594 63.15625 30.433594 Z M 63.15625 30.433594"/>
    </clipPath>
    <linearGradient x1="286.5" gradientTransform="scale(.65445)" y1="11.5" x2="286.5" gradientUnits="userSpaceOnUse" y2="561.5" id="c">
      <stop stop-color="#A7A9AC" offset="0"/>
      <stop stop-color="#A8AAAD" offset=".004"/>
      <stop stop-color="#A9ABAE" offset=".008"/>
      <stop stop-color="#A9ABAE" offset=".012"/>
      <stop stop-color="#AAACAF" offset=".016"/>
      <stop stop-color="#ABADB0" offset=".02"/>
      <stop stop-color="#ACAEB1" offset=".023"/>
      <stop stop-color="#ACAEB1" offset=".027"/>
      <stop stop-color="#ADAFB2" offset=".031"/>
      <stop stop-color="#AEB0B3" offset=".035"/>
      <stop stop-color="#AFB1B4" offset=".039"/>
      <stop stop-color="#AFB1B4" offset=".043"/>
      <stop stop-color="#B0B2B5" offset=".047"/>
      <stop stop-color="#B1B3B6" offset=".051"/>
      <stop stop-color="#B2B3B6" offset=".055"/>
      <stop stop-color="#B2B4B7" offset=".059"/>
      <stop stop-color="#B3B5B8" offset=".063"/>
      <stop stop-color="#B4B6B8" offset=".066"/>
      <stop stop-color="#B4B6B9" offset=".07"/>
      <stop stop-color="#B5B7BA" offset=".074"/>
      <stop stop-color="#B6B8BA" offset=".078"/>
      <stop stop-color="#B7B8BB" offset=".082"/>
      <stop stop-color="#B7B9BC" offset=".086"/>
      <stop stop-color="#B8BABC" offset=".09"/>
      <stop stop-color="#B9BBBD" offset=".094"/>
      <stop stop-color="#BABBBE" offset=".098"/>
      <stop stop-color="#BABCBF" offset=".102"/>
      <stop stop-color="#BBBDBF" offset=".105"/>
      <stop stop-color="#BCBDC0" offset=".109"/>
      <stop stop-color="#BDBEC1" offset=".113"/>
      <stop stop-color="#BDBFC1" offset=".117"/>
      <stop stop-color="#BEBFC2" offset=".121"/>
      <stop stop-color="#BFC0C3" offset=".125"/>
      <stop stop-color="#BFC1C3" offset=".129"/>
      <stop stop-color="#C0C2C4" offset=".133"/>
      <stop stop-color="#C1C2C5" offset=".137"/>
      <stop stop-color="#C2C3C5" offset=".141"/>
      <stop stop-color="#C2C4C6" offset=".145"/>
      <stop stop-color="#C3C4C7" offset=".148"/>
      <stop stop-color="#C4C5C7" offset=".152"/>
      <stop stop-color="#C5C6C8" offset=".156"/>
      <stop stop-color="#C5C7C9" offset=".16"/>
      <stop stop-color="#C6C7C9" offset=".164"/>
      <stop stop-color="#C7C8CA" offset=".168"/>
      <stop stop-color="#C8C9CB" offset=".172"/>
      <stop stop-color="#C8C9CC" offset=".176"/>
      <stop stop-color="#C9CACC" offset=".18"/>
      <stop stop-color="#CACBCD" offset=".184"/>
      <stop stop-color="#CBCCCE" offset=".188"/>
      <stop stop-color="#CBCCCE" offset=".191"/>
      <stop stop-color="#CCCDCF" offset=".195"/>
      <stop stop-color="#CCCDCF" offset=".199"/>
      <stop stop-color="#CDCED0" offset=".203"/>
      <stop stop-color="#CDCED0" offset=".207"/>
      <stop stop-color="#CECFD1" offset=".211"/>
      <stop stop-color="#CECFD1" offset=".215"/>
      <stop stop-color="#CFD0D2" offset=".219"/>
      <stop stop-color="#CFD0D2" offset=".223"/>
      <stop stop-color="#D0D1D3" offset=".227"/>
      <stop stop-color="#D0D1D3" offset=".23"/>
      <stop stop-color="#D1D2D4" offset=".234"/>
      <stop stop-color="#D1D3D4" offset=".238"/>
      <stop stop-color="#D2D3D5" offset=".242"/>
      <stop stop-color="#D3D4D5" offset=".246"/>
      <stop stop-color="#D3D4D6" offset=".25"/>
      <stop stop-color="#D4D5D6" offset=".254"/>
      <stop stop-color="#D4D5D7" offset=".258"/>
      <stop stop-color="#D5D6D7" offset=".262"/>
      <stop stop-color="#D5D6D8" offset=".266"/>
      <stop stop-color="#D6D7D8" offset=".27"/>
      <stop stop-color="#D6D7D9" offset=".273"/>
      <stop stop-color="#D7D8D9" offset=".277"/>
      <stop stop-color="#D7D8DA" offset=".281"/>
      <stop stop-color="#D8D9DA" offset=".285"/>
      <stop stop-color="#D8D9DB" offset=".289"/>
      <stop stop-color="#D9DADB" offset=".293"/>
      <stop stop-color="#D9DADC" offset=".297"/>
      <stop stop-color="#DADBDC" offset=".301"/>
      <stop stop-color="#DADBDD" offset=".305"/>
      <stop stop-color="#DBDCDD" offset=".309"/>
      <stop stop-color="#DCDDDE" offset=".313"/>
      <stop stop-color="#DCDDDE" offset=".316"/>
      <stop stop-color="#DDDEDF" offset=".32"/>
      <stop stop-color="#DDDEDF" offset=".324"/>
      <stop stop-color="#DEDFE0" offset=".328"/>
      <stop stop-color="#DEDFE0" offset=".332"/>
      <stop stop-color="#DFE0E1" offset=".336"/>
      <stop stop-color="#DFE0E1" offset=".34"/>
      <stop stop-color="#E0E1E2" offset=".344"/>
      <stop stop-color="#E0E1E2" offset=".348"/>
      <stop stop-color="#E1E2E3" offset=".352"/>
      <stop stop-color="#E1E2E3" offset=".355"/>
      <stop stop-color="#E2E3E4" offset=".359"/>
      <stop stop-color="#E2E3E4" offset=".367"/>
      <stop stop-color="#E3E4E5" offset=".375"/>
      <stop stop-color="#E4E5E6" offset=".383"/>
      <stop stop-color="#E4E5E6" offset=".391"/>
      <stop stop-color="#E5E6E7" offset=".398"/>
      <stop stop-color="#E6E7E8" offset=".406"/>
      <stop stop-color="#E6E7E8" offset=".414"/>
      <stop stop-color="#E7E8E9" offset=".422"/>
      <stop stop-color="#E8E9E9" offset=".43"/>
      <stop stop-color="#E8EAEA" offset=".438"/>
      <stop stop-color="#E9EAEB" offset=".445"/>
      <stop stop-color="#EAEBEB" offset=".453"/>
      <stop stop-color="#EBECEC" offset=".461"/>
      <stop stop-color="#EBECED" offset=".469"/>
      <stop stop-color="#ECEDED" offset=".477"/>
      <stop stop-color="#EDEEEE" offset=".484"/>
      <stop stop-color="#EDEEEF" offset=".492"/>
      <stop stop-color="#EEEFEF" offset=".5"/>
      <stop stop-color="#EFF0F0" offset=".508"/>
      <stop stop-color="#EFF0F1" offset=".516"/>
      <stop stop-color="#F0F1F1" offset=".523"/>
      <stop stop-color="#F1F2F2" offset=".531"/>
      <stop stop-color="#F2F3F3" offset=".539"/>
      <stop stop-color="#F2F3F3" offset=".547"/>
      <stop stop-color="#F3F4F4" offset=".563"/>
      <stop stop-color="#F3F4F4" offset=".578"/>
      <stop stop-color="#F4F5F5" offset=".594"/>
      <stop stop-color="#F5F6F6" offset=".609"/>
      <stop stop-color="#F6F6F6" offset=".625"/>
      <stop stop-color="#F7F7F7" offset=".641"/>
      <stop stop-color="#F7F8F8" offset=".656"/>
      <stop stop-color="#F8F9F9" offset=".672"/>
      <stop stop-color="#F9F9F9" offset=".688"/>
      <stop stop-color="#FAFAFA" offset=".703"/>
      <stop stop-color="#FAFBFB" offset=".719"/>
      <stop stop-color="#FBFBFB" offset=".734"/>
      <stop stop-color="#FCFCFC" offset=".75"/>
      <stop stop-color="#FCFCFC" offset=".813"/>
      <stop stop-color="#FDFDFD" offset=".875"/>
      <stop stop-color="#FEFEFE" offset=".938"/>
      <stop stop-color="#FFF" offset="1"/>
    </linearGradient>
    <linearGradient x1="286.5" gradientTransform="scale(.65445)" y1="46.5" x2="286.5" gradientUnits="userSpaceOnUse" y2="526.5" id="f">
      <stop stop-color="#FFF" offset="0"/>
      <stop stop-color="#FFF" offset=".063"/>
      <stop stop-color="#FEFEFE" offset=".125"/>
      <stop stop-color="#FDFDFD" offset=".188"/>
      <stop stop-color="#FDFDFD" offset=".25"/>
      <stop stop-color="#FCFCFC" offset=".313"/>
      <stop stop-color="#FBFBFB" offset=".328"/>
      <stop stop-color="#FBFBFB" offset=".344"/>
      <stop stop-color="#FAFAFA" offset=".359"/>
      <stop stop-color="#FAFAFA" offset=".375"/>
      <stop stop-color="#F9F9F9" offset=".391"/>
      <stop stop-color="#F8F8F8" offset=".406"/>
      <stop stop-color="#F8F8F8" offset=".422"/>
      <stop stop-color="#F7F7F7" offset=".438"/>
      <stop stop-color="#F6F6F6" offset=".453"/>
      <stop stop-color="#F6F6F6" offset=".469"/>
      <stop stop-color="#F5F5F5" offset=".484"/>
      <stop stop-color="#F4F4F4" offset=".5"/>
      <stop stop-color="#F4F4F4" offset=".516"/>
      <stop stop-color="#F3F3F3" offset=".523"/>
      <stop stop-color="#F2F2F2" offset=".531"/>
      <stop stop-color="#F2F2F2" offset=".539"/>
      <stop stop-color="#F1F1F1" offset=".547"/>
      <stop stop-color="#F0F0F0" offset=".555"/>
      <stop stop-color="#F0F0F0" offset=".563"/>
      <stop stop-color="#EFEFEF" offset=".57"/>
      <stop stop-color="#EEE" offset=".578"/>
      <stop stop-color="#EEE" offset=".586"/>
      <stop stop-color="#EDEDED" offset=".594"/>
      <stop stop-color="#ECECEC" offset=".602"/>
      <stop stop-color="#EBEBEB" offset=".609"/>
      <stop stop-color="#EBEBEB" offset=".617"/>
      <stop stop-color="#EAEAEA" offset=".625"/>
      <stop stop-color="#E9E9E9" offset=".633"/>
      <stop stop-color="#E9E9E9" offset=".641"/>
      <stop stop-color="#E8E8E8" offset=".648"/>
      <stop stop-color="#E7E7E7" offset=".656"/>
      <stop stop-color="#E7E7E7" offset=".664"/>
      <stop stop-color="#E6E6E6" offset=".672"/>
      <stop stop-color="#E5E5E5" offset=".68"/>
      <stop stop-color="#E5E5E5" offset=".688"/>
      <stop stop-color="#E4E4E4" offset=".695"/>
      <stop stop-color="#E3E3E3" offset=".699"/>
      <stop stop-color="#E2E2E2" offset=".703"/>
      <stop stop-color="#E2E2E2" offset=".707"/>
      <stop stop-color="#E1E1E1" offset=".711"/>
      <stop stop-color="#E1E1E1" offset=".715"/>
      <stop stop-color="#E0E0E0" offset=".719"/>
      <stop stop-color="#E0E0E0" offset=".723"/>
      <stop stop-color="#DFDFDF" offset=".727"/>
      <stop stop-color="#DFDFDF" offset=".73"/>
      <stop stop-color="#DEDEDE" offset=".734"/>
      <stop stop-color="#DEDEDE" offset=".738"/>
      <stop stop-color="#DDD" offset=".742"/>
      <stop stop-color="#DDD" offset=".746"/>
      <stop stop-color="#DCDCDC" offset=".75"/>
      <stop stop-color="#DCDCDC" offset=".754"/>
      <stop stop-color="#DBDBDB" offset=".758"/>
      <stop stop-color="#DBDBDB" offset=".762"/>
      <stop stop-color="#DADADA" offset=".766"/>
      <stop stop-color="#DADADA" offset=".77"/>
      <stop stop-color="#D9D9D9" offset=".773"/>
      <stop stop-color="#D9D9D9" offset=".777"/>
      <stop stop-color="#D8D8D8" offset=".781"/>
      <stop stop-color="#D8D8D8" offset=".785"/>
      <stop stop-color="#D7D7D7" offset=".789"/>
      <stop stop-color="#D7D7D7" offset=".793"/>
      <stop stop-color="#D6D6D6" offset=".797"/>
      <stop stop-color="#D5D5D5" offset=".801"/>
      <stop stop-color="#D5D5D5" offset=".805"/>
      <stop stop-color="#D4D4D4" offset=".809"/>
      <stop stop-color="#D4D4D4" offset=".813"/>
      <stop stop-color="#D3D3D3" offset=".816"/>
      <stop stop-color="#D3D3D3" offset=".82"/>
      <stop stop-color="#D2D2D2" offset=".824"/>
      <stop stop-color="#D2D2D2" offset=".828"/>
      <stop stop-color="#D1D1D1" offset=".832"/>
      <stop stop-color="#D1D1D1" offset=".836"/>
      <stop stop-color="#D0D0D0" offset=".84"/>
      <stop stop-color="#D0D0D0" offset=".844"/>
      <stop stop-color="#CFCFCF" offset=".848"/>
      <stop stop-color="#CFCFCF" offset=".852"/>
      <stop stop-color="#CECECE" offset=".855"/>
      <stop stop-color="#CDCDCD" offset=".859"/>
      <stop stop-color="#CCC" offset=".863"/>
      <stop stop-color="#CCC" offset=".867"/>
      <stop stop-color="#CBCBCB" offset=".871"/>
      <stop stop-color="#CACACA" offset=".875"/>
      <stop stop-color="#C9C9C9" offset=".879"/>
      <stop stop-color="#C9C9C9" offset=".883"/>
      <stop stop-color="#C8C8C8" offset=".887"/>
      <stop stop-color="#C7C7C7" offset=".891"/>
      <stop stop-color="#C6C6C6" offset=".895"/>
      <stop stop-color="#C6C6C6" offset=".898"/>
      <stop stop-color="#C5C5C5" offset=".902"/>
      <stop stop-color="#C4C4C4" offset=".906"/>
      <stop stop-color="#C3C3C3" offset=".91"/>
      <stop stop-color="#C3C3C3" offset=".914"/>
      <stop stop-color="#C2C2C2" offset=".918"/>
      <stop stop-color="#C1C1C1" offset=".922"/>
      <stop stop-color="#C0C0C0" offset=".926"/>
      <stop stop-color="#C0C0C0" offset=".93"/>
      <stop stop-color="#BFBFBF" offset=".934"/>
      <stop stop-color="#BEBEBE" offset=".938"/>
      <stop stop-color="#BDBDBD" offset=".941"/>
      <stop stop-color="#BDBDBD" offset=".945"/>
      <stop stop-color="#BCBCBC" offset=".949"/>
      <stop stop-color="#BBB" offset=".953"/>
      <stop stop-color="#BABABA" offset=".957"/>
      <stop stop-color="#BABABA" offset=".961"/>
      <stop stop-color="#B9B9B9" offset=".965"/>
      <stop stop-color="#B8B8B8" offset=".969"/>
      <stop stop-color="#B7B7B7" offset=".973"/>
      <stop stop-color="#B7B7B7" offset=".977"/>
      <stop stop-color="#B6B6B6" offset=".98"/>
      <stop stop-color="#B5B5B5" offset=".984"/>
      <stop stop-color="#B4B4B4" offset=".988"/>
      <stop stop-color="#B4B4B4" offset=".992"/>
      <stop stop-color="#B3B3B3" offset="1"/>
    </linearGradient>
  </defs>
  <g clip-path="url(#a)">
    <g clip-path="url(#b)">
      <path fill="url(#c)" d="M 7.527344 7.527344 L 7.527344 367.472656 L 367.472656 367.472656 L 367.472656 7.527344 Z M 7.527344 7.527344"/>
    </g>
  </g>
  <path transform="scale(.65445)" fill="none" d="M 91.50093 11.501781 L 481.49905 11.501781 C 484.119332 11.501781 486.733644 11.627125 489.341988 11.883781 C 491.950331 12.140437 494.5348 12.528406 497.107331 13.03575 C 499.679863 13.549062 502.216581 14.18175 504.723456 14.94575 C 507.230331 15.703781 509.695425 16.587156 512.112769 17.589906 C 514.536081 18.592656 516.899706 19.708812 519.209612 20.944344 C 521.519519 22.179875 523.769737 23.528812 525.948331 24.985187 C 528.126925 26.435593 530.227925 27.999406 532.251331 29.658718 C 534.274737 31.324 536.214581 33.078812 538.070862 34.929125 C 539.921175 36.785406 541.675987 38.72525 543.341268 40.748656 C 545.000581 42.772062 546.564393 44.873062 548.0148 47.051656 C 549.471175 49.230249 550.820112 51.480468 552.055643 53.790374 C 553.291174 56.100281 554.407331 58.463906 555.410081 60.887218 C 556.412831 63.304562 557.296206 65.769656 558.054237 68.27653 C 558.818237 70.783405 559.450924 73.320124 559.964237 75.892655 C 560.471581 78.465187 560.859549 81.049655 561.116206 83.657999 C 561.372862 86.266343 561.498206 88.880655 561.498206 91.500936 L 561.498206 481.499057 C 561.498206 484.119338 561.372862 486.733651 561.116206 489.341995 C 560.859549 491.950338 560.471581 494.534807 559.964237 497.107338 C 559.450924 499.679869 558.818237 502.216588 558.054237 504.723463 C 557.296206 507.230338 556.412831 509.695432 555.410081 512.112776 C 554.407331 514.536088 553.291174 516.899713 552.055643 519.209619 C 550.820112 521.519525 549.471175 523.769744 548.0148 525.948338 C 546.564393 528.126932 545.000581 530.227932 543.341268 532.251338 C 541.675987 534.274744 539.921175 536.214588 538.070862 538.070869 C 536.214581 539.921182 534.274737 541.675994 532.251331 543.341275 C 530.227925 545.000588 528.126925 546.5644 525.948331 548.014806 C 523.769737 549.471181 521.519519 550.820119 519.209612 552.05565 C 516.899706 553.291181 514.536081 554.407338 512.112769 555.410088 C 509.695425 556.412838 507.230331 557.296213 504.723456 558.054244 C 502.216581 558.818244 499.679863 559.450931 497.107331 559.964244 C 494.5348 560.471588 491.950331 560.859556 489.341988 561.116213 C 486.733644 561.372869 484.119332 561.498213 481.49905 561.498213 L 91.50093 561.498213 C 88.880648 561.498213 86.266336 561.372869 83.657992 561.116213 C 81.049648 560.859556 78.46518 560.471588 75.892649 559.964244 C 73.320117 559.450931 70.783399 558.818244 68.276524 558.054244 C 65.769649 557.296213 63.304555 556.412838 60.887211 555.410088 C 58.463899 554.407338 56.100274 553.291181 53.790368 552.05565 C 51.480461 550.820119 49.230243 549.471181 47.051649 548.014806 C 44.873055 546.5644 42.772055 545.000588 40.748649 543.341275 C 38.725243 541.675994 36.785399 539.921182 34.929118 538.070869 C 33.078805 536.214588 31.323993 534.274744 29.658712 532.251338 C 27.999399 530.227932 26.435587 528.126932 24.98518 525.948338 C 23.528805 523.769744 22.179868 521.519525 20.944337 519.209619 C 19.708805 516.899713 18.592649 514.536088 17.589899 512.112776 C 16.587149 509.695432 15.703774 507.230338 14.945743 504.723463 C 14.181743 502.216588 13.549055 499.679869 13.035743 497.107338 C 12.528399 494.534807 12.14043 491.950338 11.883774 489.341995 C 11.627118 486.733651 11.501774 484.119338 11.501774 481.499057 L 11.501774 91.500936 C 11.501774 88.880655 11.627118 86.266343 11.883774 83.657999 C 12.14043 81.049655 12.528399 78.465187 13.035743 75.892655 C 13.549055 73.320124 14.181743 70.783405 14.945743 68.27653 C 15.703774 65.769656 16.587149 63.304562 17.589899 60.887218 C 18.592649 58.463906 19.708805 56.100281 20.944337 53.790374 C 22.179868 51.480468 23.528805 49.230249 24.98518 47.051656 C 26.435587 44.873062 27.999399 42.772062 29.658712 40.748656 C 31.323993 38.72525 33.078805 36.785406 34.929118 34.929125 C 36.785399 33.078812 38.725243 31.324 40.748649 29.658718 C 42.772055 27.999406 44.873055 26.435593 47.051649 24.985187 C 49.230243 23.528812 51.480461 22.179875 53.790368 20.944344 C 56.100274 19.708812 58.463899 18.592656 60.887211 17.589906 C 63.304555 16.587156 65.769649 15.703781 68.276524 14.94575 C 70.783399 14.18175 73.320117 13.549062 75.892649 13.03575 C 78.46518 12.528406 81.049648 12.140437 83.657992 11.883781 C 86.266336 11.627125 88.880648 11.501781 91.50093 11.501781 Z M 91.50093 11.501781" stroke="#808080" stroke-width="23" stroke-miterlimit="10"/>
  <g clip-path="url(#d)">
    <g clip-path="url(#e)">
      <path fill="url(#f)" d="M 30.433594 30.433594 L 30.433594 344.566406 L 344.566406 344.566406 L 344.566406 30.433594 Z M 30.433594 30.433594"/>
    </g>
  </g>
  <path transform="scale(.65445)" fill="none" d="M 93.112492 422.450214 L 219.888741 150.54978" stroke="#000" stroke-width="20" stroke-miterlimit="10"/>
  <path transform="scale(.65445)" fill="none" d="M 353.111239 422.450214 L 479.887488 150.54978" stroke="#000" stroke-width="20" stroke-miterlimit="10"/>
  <path transform="scale(.65445)" fill="none" d="M 386.500426 286.499997 C 386.500426 288.135434 386.458645 289.770872 386.381051 291.406309 C 386.297489 293.041747 386.178114 294.671215 386.016958 296.300684 C 385.855801 297.930153 385.658833 299.553653 385.420083 301.171184 C 385.175364 302.794684 384.894833 304.406247 384.578489 306.01184 C 384.262145 307.611465 383.898051 309.21109 383.504114 310.798778 C 383.104208 312.386465 382.668489 313.962215 382.196958 315.526028 C 381.719458 317.095809 381.206145 318.647684 380.65702 320.187621 C 380.101926 321.727559 379.516989 323.255559 378.89027 324.765653 C 378.263551 326.281715 377.60102 327.773903 376.896708 329.254153 C 376.198364 330.734403 375.464208 332.196746 374.694239 333.641184 C 373.918301 335.085621 373.11252 336.506184 372.270927 337.90884 C 371.429333 339.311496 370.557895 340.696246 369.644677 342.057121 C 368.737427 343.417996 367.794364 344.754996 366.821458 346.068121 C 365.848552 347.387215 364.839833 348.676465 363.80127 349.94184 C 362.762708 351.207215 361.694302 352.442746 360.596052 353.654402 C 359.497802 354.866059 358.369708 356.05384 357.21177 357.211777 C 356.053833 358.369715 354.866052 359.497809 353.654395 360.596059 C 352.442739 361.694308 351.207208 362.762715 349.941833 363.801277 C 348.676458 364.83984 347.387208 365.848558 346.068114 366.821465 C 344.754989 367.794371 343.417989 368.737433 342.057114 369.644683 C 340.696239 370.557902 339.311489 371.42934 337.908833 372.270933 C 336.506177 373.112527 335.085614 373.918308 333.641177 374.694246 C 332.196739 375.464215 330.734396 376.198371 329.254146 376.896715 C 327.773896 377.601027 326.281708 378.263558 324.765646 378.890277 C 323.255552 379.516996 321.727552 380.101933 320.187615 380.657027 C 318.647677 381.206152 317.095802 381.719465 315.526021 382.196965 C 313.962208 382.668496 312.386458 383.104215 310.798771 383.504121 C 309.211083 383.898058 307.611458 384.262152 306.011833 384.578496 C 304.40624 384.894839 302.794677 385.175371 301.171177 385.420089 C 299.553646 385.658839 297.930146 385.855808 296.300677 386.016964 C 294.671209 386.178121 293.04174 386.297496 291.406302 386.381058 C 289.770865 386.458652 288.135427 386.500433 286.49999 386.500433 C 284.864552 386.500433 283.229115 386.458652 281.593678 386.381058 C 279.95824 386.297496 278.328771 386.178121 276.699303 386.016964 C 275.069834 385.855808 273.446334 385.658839 271.828803 385.420089 C 270.205303 385.175371 268.59374 384.894839 266.988146 384.578496 C 265.388521 384.262152 263.788896 383.898058 262.201209 383.504121 C 260.613521 383.104215 259.037772 382.668496 257.473959 382.196965 C 255.904178 381.719465 254.352303 381.206152 252.812365 380.657027 C 251.272428 380.101933 249.744428 379.516996 248.234334 378.890277 C 246.718272 378.263558 245.226084 377.601027 243.745834 376.896715 C 242.265584 376.198371 240.80324 375.464215 239.358803 374.694246 C 237.914365 373.918308 236.493803 373.112527 235.091147 372.270933 C 233.688491 371.42934 232.303741 370.557902 230.942866 369.644683 C 229.581991 368.737433 228.244991 367.794371 226.931866 366.821465 C 225.612772 365.848558 224.323522 364.83984 223.058147 363.801277 C 221.792772 362.762715 220.557241 361.694308 219.345584 360.596059 C 218.133928 359.497809 216.946147 358.369715 215.788209 357.211777 C 214.630272 356.05384 213.502178 354.866059 212.403928 353.654402 C 211.305678 352.442746 210.237272 351.207215 209.19871 349.94184 C 208.160147 348.676465 207.151428 347.387215 206.178522 346.068121 C 205.205616 344.754996 204.262553 343.417996 203.355303 342.057121 C 202.442085 340.696246 201.570647 339.311496 200.729053 337.90884 C 199.88746 336.506184 199.081678 335.085621 198.305741 333.641184 C 197.535772 332.196746 196.801616 330.734403 196.103272 329.254153 C 195.39896 327.773903 194.736428 326.281715 194.10971 324.765653 C 193.482991 323.255559 192.898053 321.727559 192.34296 320.187621 C 191.793835 318.647684 191.280522 317.095809 190.803022 315.526028 C 190.331491 313.962215 189.895772 312.386465 189.495866 310.798778 C 189.101929 309.21109 188.737835 307.611465 188.421491 306.01184 C 188.105147 304.406247 187.824616 302.794684 187.579897 301.171184 C 187.341147 299.553653 187.144179 297.930153 186.983022 296.300684 C 186.821866 294.671215 186.702491 293.041747 186.618929 291.406309 C 186.541335 289.770872 186.499554 288.135434 186.499554 286.499997 C 186.499554 284.864559 186.541335 283.229122 186.618929 281.593684 C 186.702491 279.958247 186.821866 278.328778 186.983022 276.699309 C 187.144179 275.069841 187.341147 273.446341 187.579897 271.828809 C 187.824616 270.20531 188.105147 268.593747 188.421491 266.988153 C 188.737835 265.388528 189.101929 263.788903 189.495866 262.201216 C 189.895772 260.613528 190.331491 259.037778 190.803022 257.473966 C 191.280522 255.904185 191.793835 254.35231 192.34296 252.812372 C 192.898053 251.272435 193.482991 249.744435 194.10971 248.234341 C 194.736428 246.718279 195.39896 245.226091 196.103272 243.745841 C 196.801616 242.265591 197.535772 240.803247 198.305741 239.35881 C 199.081678 237.914372 199.88746 236.49381 200.729053 235.091154 C 201.570647 233.688497 202.442085 232.303747 203.355303 230.942872 C 204.262553 229.581997 205.205616 228.244997 206.178522 226.931872 C 207.151428 225.612779 208.160147 224.323529 209.19871 223.058154 C 210.237272 221.792779 211.305678 220.557248 212.403928 219.345591 C 213.502178 218.133935 214.630272 216.946154 215.788209 215.788216 C 216.946147 214.630279 218.133928 213.502185 219.345584 212.403935 C 220.557241 211.305685 221.792772 210.237279 223.058147 209.198716 C 224.323522 208.160154 225.612772 207.151435 226.931866 206.178529 C 228.244991 205.205623 229.581991 204.26256 230.942866 203.35531 C 232.303741 202.442092 233.688491 201.570654 235.091147 200.72906 C 236.493803 199.887467 237.914365 199.081685 239.358803 198.305748 C 240.80324 197.535779 242.265584 196.801623 243.745834 196.103279 C 245.226084 195.398967 246.718272 194.736435 248.234334 194.109717 C 249.744428 193.482998 251.272428 192.89806 252.812365 192.342967 C 254.352303 191.793842 255.904178 191.280529 257.473959 190.803029 C 259.037772 190.331498 260.613521 189.895779 262.201209 189.495873 C 263.788896 189.101935 265.388521 188.737842 266.988146 188.421498 C 268.59374 188.105154 270.205303 187.824623 271.828803 187.579904 C 273.446334 187.341154 275.069834 187.144185 276.699303 186.983029 C 278.328771 186.821873 279.95824 186.702498 281.593678 186.618935 C 283.229115 186.541342 284.864552 186.49956 286.49999 186.49956 C 288.135427 186.49956 289.770865 186.541342 291.406302 186.618935 C 293.04174 186.702498 294.671209 186.821873 296.300677 186.983029 C 297.930146 187.144185 299.553646 187.341154 301.171177 187.579904 C 302.794677 187.824623 304.40624 188.105154 306.011833 188.421498 C 307.611458 188.737842 309.211083 189.101935 310.798771 189.495873 C 312.386458 189.895779 313.962208 190.331498 315.526021 190.803029 C 317.095802 191.280529 318.647677 191.793842 320.187615 192.342967 C 321.727552 192.89806 323.255552 193.482998 324.765646 194.109717 C 326.281708 194.736435 327.773896 195.398967 329.254146 196.103279 C 330.734396 196.801623 332.196739 197.535779 333.641177 198.305748 C 335.085614 199.081685 336.506177 199.887467 337.908833 200.72906 C 339.311489 201.570654 340.696239 202.442092 342.057114 203.35531 C 343.417989 204.26256 344.754989 205.205623 346.068114 206.178529 C 347.387208 207.151435 348.676458 208.160154 349.941833 209.198716 C 351.207208 210.237279 352.442739 211.305685 353.654395 212.403935 C 354.866052 213.502185 356.053833 214.630279 357.21177 215.788216 C 358.369708 216.946154 359.497802 218.133935 360.596052 219.345591 C 361.694302 220.557248 362.762708 221.792779 363.80127 223.058154 C 364.839833 224.323529 365.848552 225.612779 366.821458 226.931872 C 367.794364 228.244997 368.737427 229.581997 369.644677 230.942872 C 370.557895 232.303747 371.429333 233.688497 372.270927 235.091154 C 373.11252 236.49381 373.918301 237.914372 374.694239 239.35881 C 375.464208 240.803247 376.198364 242.265591 376.896708 243.745841 C 377.60102 245.226091 378.263551 246.718279 378.89027 248.234341 C 379.516989 249.744435 380.101926 251.272435 380.65702 252.812372 C 381.206145 254.35231 381.719458 255.904185 382.196958 257.473966 C 382.668489 259.037778 383.104208 260.613528 383.504114 262.201216 C 383.898051 263.788903 384.262145 265.388528 384.578489 266.988153 C 384.894833 268.593747 385.175364 270.20531 385.420083 271.828809 C 385.658833 273.446341 385.855801 275.069841 386.016958 276.699309 C 386.178114 278.328778 386.297489 279.958247 386.381051 281.593684 C 386.458645 283.229122 386.500426 284.864559 386.500426 286.499997 Z M 386.500426 286.499997" stroke="#000" stroke-width="20" stroke-miterlimit="10"/>
</svg>